<svg width="181" height="176" viewBox="0 0 181 176" fill="none" xmlns="http://www.w3.org/2000/svg">
<g clip-path="url(#clip0_2684_2855)">
<path d="M177.799 41.686C175.37 38.4911 172.632 35.5151 170.005 32.6266C167.377 29.7382 165.103 27.3091 162.94 24.53C162.012 23.3265 161.107 22.1012 160.224 20.8977L159.893 20.438C159.796 20.2962 159.685 20.1644 159.562 20.0443L158.502 18.9063C152.43 12.4729 146.16 5.77692 136.07 3.3261C130.994 2.25141 125.802 1.8104 120.615 2.01321H116.376C114.626 1.96406 112.896 1.63127 111.254 1.02834C108.905 0.111512 106.35 -0.160595 103.857 0.240607C103.562 0.277092 103.273 0.350569 102.996 0.459377L102.709 0.5908L102.422 0.743859C101.605 1.20339 100.877 1.72873 100.082 2.27579L98.9119 3.08542C94.0443 6.37824 88.4897 8.53996 82.662 9.40946C81.3784 9.62493 80.0781 9.72748 78.7762 9.71585C74.2916 9.48165 69.8479 8.74761 65.5291 7.52761C64.0728 7.06163 62.5339 6.90445 61.0124 7.06656C59.4908 7.22867 58.0207 7.70629 56.6977 8.4684C56.0585 8.75547 55.4637 9.13126 54.9314 9.58443C53.2011 10.5277 51.2909 11.1017 49.3234 11.2694C47.9097 11.4928 46.5094 11.7924 45.1285 12.1667C41.4589 13.2582 37.9539 14.833 34.7074 16.8493L34.4425 17.0245C31.9103 18.8494 29.5393 20.8845 27.3553 23.1079C25.3767 25.1658 23.547 27.3595 21.8798 29.6726C18.0738 35.4591 14.8637 41.6095 12.2977 48.0317C8.74304 56.5658 5.8949 63.0432 3.113 69.0609C2.9143 69.5204 2.6052 70.0455 2.2961 70.5925L2.09739 70.9427V71.0739C1.87661 71.5553 1.65582 72.0368 1.45711 72.5182C0.646897 74.1135 0.173593 75.8558 0.0661621 77.6386C0.0835002 78.4203 0.328888 79.1803 0.772675 79.8268C4.74681 85.6694 10.9509 88.5799 16.4705 90.9213L17.4641 91.337L17.8836 91.4903L19.2303 91.884L21.6369 92.5844C24.6791 93.4785 27.7868 94.1368 30.932 94.5536H31.0645H31.771C32.9429 94.7035 34.1221 94.7912 35.3035 94.8162C36.5764 94.8382 37.8443 94.6534 39.0569 94.2691C39.0569 95.4727 39.0569 96.6543 39.0569 97.8579V98.383C38.7699 106.326 39.6751 123.592 40.0504 130.966C40.0504 132.629 40.205 133.745 40.205 134.03C40.3253 139.956 40.7601 145.873 41.5076 151.754C41.1764 152.739 40.779 153.702 40.3374 154.708C38.5983 158.082 37.8778 161.88 38.2621 165.649C39.6309 175.146 51.9728 175.387 57.8899 175.518H59.1925H62.3498C69.0968 175.555 75.8408 175.227 82.5516 174.534L87.144 174.052C95.3793 173.199 102.82 172.389 110.393 171.23L114.808 170.551C120.483 169.72 126.333 168.866 132.118 167.575C134.017 167.137 136.004 166.744 137.925 166.372C144.337 165.372 150.602 163.601 156.581 161.098C158.46 160.342 160.131 159.155 161.455 157.633C162.78 156.111 163.72 154.298 164.198 152.345C165.744 145.78 161.747 138.997 158.723 135.014C157.685 127.552 156.515 119.85 155.036 111.534L154.704 109.171C153.468 99.521 152.011 89.9366 150.289 80.7241C150.605 80.7466 150.922 80.7466 151.238 80.7241C154.152 80.7241 157.663 78.5358 164.64 71.9711L165.324 71.3364C165.479 71.2052 180.271 57.4411 180.779 49.1258C180.924 47.585 180.535 46.0413 179.675 44.7493C179.075 43.5714 178.333 42.4694 177.467 41.4669" fill="white"/>
<path d="M176.319 47.0027C175.874 45.9671 175.279 45.0016 174.553 44.1362C170.005 38.2061 164.353 32.9542 159.716 27.0022C158.612 25.6236 157.508 24.2014 156.581 22.8228C150.399 16.2581 144.548 9.69342 135.077 7.26448C128.939 5.73271 122.646 6.17021 116.354 6.01703C114.173 5.96324 112.017 5.54922 109.973 4.79176C108.264 4.11903 106.403 3.91491 104.586 4.20089C103.593 4.76983 102.577 5.5576 101.318 6.38913C95.9747 10.0112 89.878 12.3966 83.479 13.3695C77.0762 14.4198 70.7617 12.9756 64.6018 11.5095C63.6183 11.1629 62.5679 11.0439 61.5308 11.1615C60.4938 11.279 59.4976 11.6302 58.6185 12.188C58.2531 12.2971 57.9197 12.4921 57.6471 12.7567C54.7989 15.0762 50.0299 14.945 46.4091 16.1048C43.0872 17.0904 39.9157 18.5187 36.9815 20.3501C34.6232 22.0272 32.4079 23.8933 30.358 25.9299C28.5056 27.8703 26.787 29.9321 25.2136 32.1009C21.5676 37.6127 18.4976 43.4783 16.051 49.6068C13.0925 56.7186 10.0457 63.7864 6.82222 70.7669C6.5352 71.4015 6.15986 72.0361 5.80661 72.6488C5.45335 73.2615 5.34295 73.6555 5.10008 74.1807C4.52754 75.2682 4.18213 76.459 4.08447 77.6818C7.30794 82.4084 12.4743 84.9906 17.9498 87.2882L18.9654 87.7039C20.2239 88.0759 21.5045 88.426 22.7409 88.8199C25.5813 89.6521 28.4822 90.2668 31.4177 90.6582C33.9568 90.9208 37.2023 91.4897 39.1452 89.8267C40.4613 87.205 41.4759 84.4451 42.17 81.5989L43.6272 77.7694C43.2298 84.553 43.031 91.3364 43.031 98.1637C43.02 98.3532 43.02 98.5432 43.031 98.7327C42.6778 108.383 44.1571 132.738 44.1791 134.182C44.3107 140.249 44.7676 146.304 45.548 152.323C44.2895 156.918 41.4635 160.222 42.2141 165.452C43.1635 172.017 54.534 171.711 59.2146 171.864C68.44 171.883 77.6552 171.255 86.7907 169.982C94.452 169.194 102.246 168.384 109.819 167.203C117.038 166.109 124.258 165.189 131.389 163.592C139.294 161.82 147.617 160.835 155.013 157.399C164.529 153.023 160.158 143.132 155.013 136.699C153.887 128.515 152.585 120.353 151.172 112.212C151.039 111.381 150.929 110.571 150.841 109.74C149.428 98.7984 147.75 88.0761 145.74 77.2881C145.166 74.2683 144.548 71.2485 143.93 68.2507C146.001 71.1719 148.296 73.9298 150.796 76.5001C152.519 78.3382 161.549 69.4978 162.829 68.3818C165.037 66.3468 180.051 51.1166 176.319 46.9808" fill="#1A1A18"/>
<path d="M69.4591 14.9894C74.3369 15.9303 79.3519 15.9303 84.2297 14.9894C88.287 14.2824 92.2206 13 95.9092 11.1819C97.7533 10.241 99.5244 9.16585 101.208 7.96526C102.106 7.3099 103.067 6.74539 104.078 6.28027C100.73 11.3316 95.964 15.3021 90.3675 17.7028C85.0114 19.8232 79.2035 20.5757 73.4774 19.8911C70.7154 19.607 68.033 18.8051 65.5733 17.5278C63.8092 16.3942 62.199 15.0411 60.7822 13.5016C63.734 13.7031 66.6488 14.2692 69.4591 15.1866" fill="#9161CA"/>
<path d="M33.0516 89.3239C28.0725 89.0433 23.1659 88.0101 18.5018 86.2603C16.0824 85.34 13.7418 84.2276 11.5029 82.9341C10.1951 82.2765 8.98426 81.4445 7.90409 80.4614C6.93676 79.696 6.25335 78.6338 5.96118 77.4416C6.5573 76.7414 9.71453 77.5728 9.73661 77.5728C11.9807 78.1294 14.1919 78.8089 16.3602 79.608C19.6187 80.8907 22.803 82.3518 25.8981 83.9845C28.9871 85.4625 31.9809 87.1288 34.862 88.9737C35.2153 89.1925 35.5464 89.4331 35.8555 89.6519C34.9945 89.6519 34.0451 89.4988 33.1178 89.4331" fill="#9161CA"/>
<path d="M152.43 74.838H152.232C152.081 74.8948 151.916 74.9022 151.761 74.8589C151.606 74.8155 151.469 74.7237 151.371 74.5973L151.26 74.4005C148.699 72.0717 146.417 69.4579 144.46 66.6105C143.615 65.2836 143.073 63.79 142.87 62.234L142.65 61.9495C141.796 58.0399 140.92 54.1156 140.022 50.1768C139.073 45.8003 137.991 41.4238 136.6 37.0474C137.726 43.0869 138.631 49.192 139.713 55.2315C141.634 65.9101 143.643 76.5887 145.432 87.2673C147.22 97.9459 149.052 108.384 150.465 118.997C151.26 125.08 152.673 131.141 153.623 137.247C156.758 140.595 161.902 149.041 158.281 152.893C154.925 157.269 143.047 159.195 139.492 159.72C127.879 161.47 116.31 163.812 104.697 165.65C99.6848 166.46 94.5405 166.372 89.5287 167.269C82.6442 168.5 75.6783 169.232 68.6865 169.458C62.0715 170.021 55.4081 169.534 48.9483 168.013C41.1545 165.825 44.2676 159.632 45.8573 154.162C45.8482 154.256 45.8482 154.352 45.8573 154.446L46.6079 152.477C46.1884 146.284 46.4092 140.004 46.0781 133.833C45.9014 130.288 45.8573 126.765 45.9014 123.242C45.504 118.559 45.1949 113.862 44.9741 109.15V103.242C44.8417 96.6769 44.9741 90.3746 45.217 83.9631L45.3495 81.9062C45.5482 76.2387 46.0339 70.615 46.5417 64.9693C47.0054 59.9582 47.6236 54.8596 47.6456 49.8485C47.6456 47.0913 47.9768 44.0716 48.021 41.0956C46.1448 51.6932 44.811 62.3782 44.0248 73.1095C42.3468 78.2519 40.1169 83.241 38.5051 88.4272C37.2246 88.5584 35.37 87.0267 34.4647 86.5672C31.8595 85.2105 29.3204 83.7882 26.6931 82.4752C22.0574 79.8433 17.1308 77.7504 12.0109 76.2385C10.029 75.8324 7.99521 75.7365 5.9834 75.954C6.06433 75.3041 6.24294 74.6698 6.51329 74.0722C7.2671 72.1121 8.1522 70.2041 9.16271 68.3609C11.3706 63.9844 13.181 59.2798 15.1239 54.7282C19.8267 43.6558 24.6839 31.6205 34.0894 23.6116C39.2779 19.9134 45.7248 18.119 51.7522 16.4122C52.9445 16.0839 55.1744 16.4122 56.168 15.6463C57.6031 14.4866 58.1329 13.7426 59.9213 13.7645H60.0538C62.924 17.0031 64.889 19.3444 69.5917 20.7886C74.6621 22.0715 79.9763 22.0715 85.0467 20.7886C89.5608 19.6936 93.8141 17.7308 97.5653 15.0117C99.3324 13.5887 100.926 11.9657 102.312 10.1757C102.864 9.49739 104.078 7.28728 105.116 6.08375C106.971 5.47104 111.364 7.89996 113.528 7.70302C118.603 7.16575 123.725 7.23179 128.784 7.89989C139.647 9.38789 146.668 15.5368 154.395 22.3203C155.279 23.4582 156.14 24.5087 157.001 25.7779C159.584 28.732 162.057 31.7736 164.618 34.7496C166.826 37.3317 169.034 39.9577 171.241 42.5399C172.679 43.9652 173.973 45.5262 175.105 47.2008C175.435 47.6579 175.682 48.1688 175.834 48.7106C171.842 51.6514 168.078 54.8845 164.574 58.3827C162.514 60.5767 160.583 62.8852 158.789 65.2973C156.581 68.2296 154.992 72.2123 152.453 74.7726" fill="#9161CA"/>
<path d="M125.163 9.21263C132.199 9.90595 138.85 12.7247 144.217 17.2874C150.615 22.4768 156.608 28.1386 162.145 34.2243C166.776 38.9833 171.084 44.0421 175.039 49.367L175.811 48.7761C175.66 48.2344 175.413 47.7232 175.083 47.2661C173.951 45.5915 172.657 44.0305 171.219 42.6052C169.011 40.023 166.803 37.3973 164.596 34.8152C162.034 31.8392 159.562 28.7976 156.978 25.8435C156.117 24.6837 155.256 23.5237 154.373 22.3859C146.646 15.6023 139.625 9.45345 128.762 7.96545C123.703 7.29735 118.581 7.23131 113.506 7.76858C112.682 7.76404 111.864 7.63858 111.077 7.39648C115.672 8.5729 120.396 9.18283 125.141 9.21263" fill="#9161CA"/>
<path d="M18.1044 54.1808C20.8751 46.8327 24.5219 39.8391 28.967 33.3487C33.0757 27.0279 39.0957 22.1567 46.1662 19.4315C47.9493 18.7172 49.7977 18.1749 51.6859 17.8123C53.4622 17.7246 55.2168 17.3857 56.8964 16.8058C58.3757 16.0618 59.1043 14.8144 60.0316 13.9609H59.8991C58.0886 13.9609 57.6912 14.683 56.1457 15.8428C55.1522 16.6524 52.9223 16.2804 51.73 16.6086C45.7467 18.3154 39.2998 20.1099 34.0672 23.808C24.6838 31.817 19.8044 43.8522 15.1017 54.9247C13.1588 59.4762 11.26 64.0934 9.14049 68.5574C8.12999 70.4005 7.24487 72.3088 6.49106 74.2689C6.22071 74.8665 6.04211 75.5008 5.96118 76.1508C7.10533 76.0174 8.26129 76.0174 9.40543 76.1508C13.0484 69.1703 15.2563 61.5771 18.2369 54.2684" fill="#9161CA"/>
<path d="M38.3945 88.6021C40.0063 83.4597 42.2362 78.4705 43.9142 73.2844C44.5324 65.0347 45.4376 56.8069 46.7181 48.5791C45.4376 52.2335 44.157 55.8878 42.9648 59.5203C41.1102 65.1659 39.4322 70.9649 37.401 76.5668C35.9217 80.6369 33.7801 83.7223 29.0332 82.5625C26.8254 81.9936 24.6175 81.0526 22.4097 80.3743L26.6267 82.5625C29.254 83.8754 31.7931 85.2978 34.3983 86.6545C35.3035 87.114 37.1581 88.6457 38.4387 88.5144" fill="#9161CA"/>
<path d="M150.421 119.193C149.03 108.58 147.176 98.033 145.387 87.4638C143.599 76.8946 141.59 66.1066 139.669 55.4498C138.697 50.023 137.858 44.5088 136.887 39.1695C135.628 35.7339 134.679 32.1671 133.509 28.7315C132.626 25.3077 131.131 22.0688 129.093 19.1689C133.698 35.0038 136.744 51.2435 138.19 67.6604C139.852 82.1979 139.933 96.8704 138.432 111.425C136.666 125.299 132.449 139.872 122.116 149.96C112.159 159.676 96.8144 162.236 83.3244 160.07C76.6943 159.252 70.3857 156.766 64.9992 152.848C59.5081 148.306 55.0019 142.708 51.752 136.393C49.3948 132.031 47.4367 127.468 45.9012 122.76C45.9012 122.935 45.9012 123.11 45.9012 123.285C45.9012 126.808 45.9012 130.332 46.0779 133.876C46.409 140.047 46.0779 146.327 46.6077 152.52L45.8571 154.49C45.848 154.395 45.848 154.3 45.8571 154.205C44.2674 159.676 41.1543 165.803 48.9481 168.057C55.4079 169.577 62.0713 170.064 68.6863 169.501C75.6781 169.275 82.644 168.544 89.5285 167.313C94.5403 166.415 99.6846 166.503 104.696 165.693C116.31 163.855 127.879 161.514 139.492 159.763C143.047 159.238 154.947 157.4 158.281 152.936C161.902 149.085 156.758 140.638 153.623 137.29C152.673 131.185 151.26 125.123 150.465 119.04" fill="#9161CA"/>
<path d="M67.5383 26.7841C72.8491 29.1727 78.8243 29.6902 84.4725 28.2503C89.2438 27.1817 93.6275 24.8353 97.1456 21.4668C94.1002 23.4187 90.7928 24.936 87.3207 25.9744C80.8957 28.0364 74.024 28.3164 67.45 26.7841" fill="#1A1A18"/>
<path d="M175.083 47.266C174.726 46.6773 174.328 46.1142 173.891 45.5811C174.079 46.0942 174.133 46.6462 174.048 47.1856C173.963 47.7251 173.742 48.2345 173.405 48.6665C171.352 51.0517 168.106 52.6055 165.766 54.7937C162.991 57.194 160.555 59.9542 158.524 62.9996C157.95 63.9187 156.67 66.807 155.212 66.6976C153.292 66.5663 151.945 64.5095 150.576 63.5029C146.05 59.7785 142.421 55.0982 139.956 49.8045C140.013 50.0058 140.057 50.2105 140.089 50.4172C140.972 54.3561 141.847 58.2803 142.716 62.19L142.937 62.4745C143.139 64.0305 143.682 65.524 144.526 66.8509C146.483 69.6983 148.765 72.3122 151.327 74.6409L151.437 74.8378C151.535 74.9642 151.672 75.056 151.827 75.0993C151.982 75.1426 152.147 75.1355 152.298 75.0787H152.497C155.036 72.5185 156.67 68.5138 158.833 65.6035C160.627 63.1914 162.558 60.8829 164.618 58.6888C168.122 55.1907 171.886 51.9576 175.878 49.0167C175.726 48.475 175.48 47.9638 175.149 47.5067" fill="#9161CA"/>
<path d="M168.901 60.2643C166.396 62.9811 163.751 65.5666 160.975 68.0104C160.577 68.3824 160.202 68.7544 159.782 69.1046C158.193 70.505 156.603 72.0806 154.837 73.481C157.238 69.5769 159.948 65.8673 162.94 62.3868C165.479 59.5202 168.062 56.7629 170.844 54.0933C172.656 52.7934 174.341 51.3282 175.878 49.7168C176.209 53.5024 171.683 57.7258 168.857 60.4611" fill="#9161CA"/>
<path d="M75.288 70.6144C74.7581 70.6144 71.1151 70.0453 70.2762 69.9359C69.4372 69.8265 68.4436 69.7391 67.8033 69.586C67.6527 69.5351 67.5237 69.4354 67.4374 69.3028C67.3511 69.1703 67.3125 69.0127 67.3278 68.8557C67.3432 68.6986 67.4116 68.5513 67.5219 68.4376C67.6323 68.3239 67.7781 68.2505 67.9358 68.2293C68.2008 68.2293 74.9568 69.1483 75.3763 69.2577C75.5283 69.2962 75.663 69.3838 75.7592 69.5066C75.8553 69.6294 75.9076 69.7804 75.9076 69.9359C75.9076 70.0914 75.8553 70.2426 75.7592 70.3654C75.663 70.4882 75.5283 70.5758 75.3763 70.6144M98.8016 72.5619L93.2599 52.102L87.6299 53.5898L89.4624 60.3733C88.9731 59.4783 88.2581 58.7243 87.387 58.1851C86.2895 57.6865 85.1198 57.3617 83.9207 57.2224L63.6084 54.3775L62.7474 60.0888L83.2142 62.9774C83.6778 62.9774 84.0973 62.9774 84.2298 63.5026C84.2604 63.5945 84.2721 63.6914 84.2641 63.7879C84.2561 63.8843 84.2287 63.9783 84.1834 64.0641C84.138 64.1498 84.0758 64.2257 84.0003 64.2871C83.9249 64.3485 83.8377 64.3944 83.7441 64.4217C83.4129 64.4217 72.0866 62.846 72.0866 62.846C70.2474 62.486 68.3753 62.3174 66.5007 62.3428C65.3772 62.5403 64.337 63.0604 63.5089 63.8384C62.6807 64.6163 62.1012 65.6179 61.8421 66.7192C61.6305 67.6469 61.5048 68.5918 61.4668 69.5422C61.4656 71.0284 62.0337 72.4596 63.0565 73.5465C64.2259 74.7184 65.8095 75.3933 67.4722 75.4284L73.3671 76.2599C74.9374 76.6993 76.6082 76.6303 78.1361 76.0631C79.4644 75.4709 80.5147 74.3987 81.0726 73.0652C81.2399 72.6631 81.3656 72.2453 81.4479 71.818C81.479 71.3714 81.5912 70.9339 81.7791 70.5268C81.9188 70.3943 82.1046 70.3205 82.2979 70.3205C82.4912 70.3205 82.6771 70.3943 82.8168 70.5268C83.1038 70.8331 82.8168 71.7523 82.8168 71.7523L81.9999 77.5947L87.7403 78.4044L89.9481 63.5026C89.9583 63.4007 89.9583 63.2981 89.9481 63.1962V63.6337L92.5313 73.3935C92.6638 73.853 92.7963 74.2469 92.5313 74.5314C92.2664 74.8159 89.8819 75.2535 89.4845 75.3629L91.0079 80.9866C95.0262 79.9144 97.9847 79.411 98.7575 75.7129C98.9244 74.7288 98.8716 73.7205 98.6029 72.7588L98.8016 72.5619ZM113.903 60.0888C114.266 59.9925 114.606 59.8267 114.903 59.6003C115.201 59.3739 115.451 59.0916 115.638 58.7695C115.826 58.4474 115.948 58.0919 115.997 57.7232C116.045 57.3545 116.021 56.9797 115.924 56.6205C115.826 56.2613 115.659 55.9246 115.43 55.6295C115.202 55.3345 114.917 55.087 114.592 54.9011C114.267 54.7152 113.909 54.5946 113.537 54.5461C113.165 54.4976 112.787 54.522 112.424 54.6182C111.968 54.7376 111.549 54.9684 111.206 55.2895C110.862 55.6106 110.606 56.0119 110.459 56.4565C110 56.056 109.423 55.8124 108.814 55.762C108.204 55.7116 107.595 55.857 107.075 56.1766C106.556 56.4962 106.153 56.9729 105.929 57.5365C105.704 58.1001 105.668 58.7207 105.826 59.3062C105.984 59.8916 106.329 60.4109 106.808 60.7873C107.287 61.1638 107.876 61.3773 108.487 61.3964C109.098 61.4154 109.7 61.2392 110.202 60.8934C110.704 60.5476 111.081 60.0507 111.276 59.4763C111.617 59.7751 112.027 59.9869 112.469 60.0936C112.911 60.2004 113.373 60.1987 113.815 60.0888H113.903ZM106.971 63.809C106.669 63.8916 106.354 63.9138 106.044 63.8747C105.733 63.8356 105.434 63.7358 105.163 63.5811C104.892 63.4264 104.654 63.2198 104.464 62.9734C104.274 62.727 104.136 62.4458 104.056 62.1459L102.864 57.6599C102.708 57.0566 102.796 56.4169 103.11 55.8772C103.423 55.3374 103.937 54.9406 104.542 54.7715L114.764 52.102C115.376 51.948 116.024 52.0382 116.569 52.3533C117.115 52.6685 117.513 53.1832 117.679 53.7867L118.871 58.1632C119.026 58.7694 118.935 59.412 118.617 59.9523C118.299 60.4926 117.78 60.8874 117.171 61.0518L106.971 63.809ZM125.671 57.857L123.772 50.7669C123.307 49.1199 122.211 47.7183 120.718 46.86C119.226 46.0018 117.454 45.7547 115.78 46.1717L100.7 50.1106C99.0298 50.5674 97.6063 51.655 96.7354 53.14C95.8645 54.625 95.6155 56.3891 96.0418 58.0539L97.9406 65.1438C98.4014 66.7996 99.4987 68.2104 100.997 69.0736C102.495 69.9368 104.275 70.1835 105.955 69.7609L121.013 65.8004C122.667 65.3252 124.069 64.2298 124.923 62.7469C125.776 61.264 126.013 59.5101 125.583 57.857H125.671ZM124.148 67.8572L124.589 67.7257C124.589 67.7257 124.589 67.6165 124.589 67.5946C124.563 67.5792 124.532 67.5711 124.501 67.5711C124.47 67.5711 124.44 67.5792 124.413 67.5946C124.413 67.5946 124.413 67.5947 124.28 67.7041C124.269 67.728 124.262 67.754 124.262 67.7805C124.262 67.807 124.269 67.8333 124.28 67.8572H124.148ZM124.744 68.2074C124.72 68.2468 124.688 68.2809 124.65 68.3073C124.612 68.3337 124.569 68.3517 124.523 68.3604C124.475 68.3822 124.422 68.3935 124.369 68.3935C124.315 68.3935 124.263 68.3822 124.214 68.3604C124.133 68.3086 124.071 68.2318 124.037 68.1416V67.8572C124.016 67.8166 124.005 67.7715 124.005 67.7257C124.005 67.68 124.016 67.6351 124.037 67.5946C124.061 67.5485 124.095 67.5085 124.138 67.4781C124.18 67.4477 124.229 67.4278 124.28 67.4196C124.325 67.3983 124.374 67.387 124.424 67.387C124.473 67.387 124.523 67.3983 124.567 67.4196C124.649 67.4714 124.711 67.5482 124.744 67.6384V67.7915L124.192 67.9448C124.217 67.9914 124.255 68.0294 124.302 68.054C124.329 68.0694 124.36 68.0775 124.391 68.0775C124.422 68.0775 124.452 68.0694 124.479 68.054C124.502 68.0513 124.525 68.0441 124.545 68.0327C124.566 68.0213 124.583 68.0061 124.598 67.9878C124.612 67.9695 124.623 67.9485 124.629 67.9261C124.635 67.9037 124.637 67.8802 124.634 67.8572C124.634 67.8572 124.7 68.1198 124.656 68.2074H124.744ZM123.485 67.6822C123.504 67.7316 123.504 67.7859 123.485 67.8353H123.375C123.332 67.8202 123.285 67.8202 123.243 67.8353C123.243 67.8353 123.243 67.8354 123.243 67.9886L123.375 68.4918H123.728L123.044 68.6668V68.5573H123.198L123 67.7915H123.132C123.148 67.7504 123.175 67.7146 123.21 67.6875C123.245 67.6605 123.287 67.6435 123.331 67.6384C123.355 67.6493 123.378 67.6641 123.397 67.6822H123.485ZM122.072 68.5137C122.061 68.5337 122.055 68.5561 122.055 68.5792C122.055 68.6022 122.061 68.6249 122.072 68.6449C122.097 68.6551 122.123 68.6604 122.15 68.6604C122.176 68.6604 122.203 68.6551 122.227 68.6449C122.277 68.6601 122.331 68.6601 122.382 68.6449C122.391 68.6244 122.396 68.6019 122.396 68.5792C122.396 68.5565 122.391 68.5343 122.382 68.5137V68.3604L122.072 68.5137ZM122.58 68.8199H122.448C122.409 68.8361 122.368 68.8447 122.326 68.8447C122.285 68.8447 122.243 68.8361 122.205 68.8199C122.166 68.806 122.132 68.7829 122.105 68.7523C122.078 68.7217 122.059 68.6846 122.05 68.6449C122.034 68.6069 122.026 68.5661 122.026 68.5247C122.026 68.4833 122.034 68.4423 122.05 68.4042C122.102 68.3367 122.17 68.284 122.249 68.2512H122.514H122.382H122.271C122.258 68.224 122.25 68.1939 122.25 68.1636C122.25 68.1332 122.258 68.1031 122.271 68.0759C122.324 68.0009 122.403 67.9469 122.492 67.9229C122.577 67.8888 122.672 67.8888 122.757 67.9229C122.796 67.9419 122.83 67.9694 122.857 68.0035C122.884 68.0377 122.902 68.0774 122.911 68.1197L122.58 68.8199ZM120.77 68.5356C120.754 68.558 120.745 68.5846 120.745 68.612C120.745 68.6395 120.754 68.6664 120.77 68.6887V68.9951C120.797 69.0105 120.827 69.0186 120.858 69.0186C120.889 69.0186 120.92 69.0105 120.946 68.9951C120.989 69.0101 121.036 69.0101 121.079 68.9951C121.089 68.9746 121.094 68.9521 121.094 68.9294C121.094 68.9067 121.089 68.8842 121.079 68.8637H121.211C121.221 68.9068 121.222 68.9516 121.213 68.9951C121.205 69.0385 121.188 69.0798 121.164 69.1166C121.139 69.1534 121.107 69.1848 121.07 69.2091C121.032 69.2333 120.99 69.2499 120.946 69.2577C120.898 69.2794 120.845 69.2905 120.792 69.2905C120.739 69.2905 120.686 69.2794 120.637 69.2577C120.556 69.2059 120.494 69.1291 120.461 69.0389V68.7544C120.439 68.7139 120.428 68.6687 120.428 68.623C120.428 68.5773 120.439 68.5324 120.461 68.4918C120.484 68.4458 120.519 68.4058 120.561 68.3754C120.603 68.345 120.652 68.3248 120.704 68.3166H120.88H121.013H120.858H120.681C120.681 68.3166 120.704 68.47 120.681 68.5356H120.77ZM118.562 69.586C118.562 69.586 118.562 69.5858 118.562 69.7171C118.619 69.7391 118.682 69.7391 118.739 69.7171C118.739 69.7171 118.739 69.7171 118.871 69.7171C118.883 69.6933 118.889 69.667 118.889 69.6405C118.889 69.6139 118.883 69.5879 118.871 69.5641V69.2577C118.844 69.2423 118.814 69.2342 118.783 69.2342C118.752 69.2342 118.721 69.2423 118.694 69.2577H118.54C118.529 69.3155 118.529 69.3748 118.54 69.4326L118.562 69.586ZM118.739 68.5137L119.07 69.7609C119.045 69.7712 119.019 69.7764 118.992 69.7764C118.966 69.7764 118.94 69.7712 118.915 69.7609C118.83 69.7928 118.736 69.7928 118.65 69.7609C118.568 69.7104 118.505 69.6332 118.474 69.5422V69.2577C118.452 69.2133 118.441 69.1645 118.441 69.1153C118.441 69.0661 118.452 69.0176 118.474 68.9732C118.536 68.8979 118.621 68.8441 118.716 68.8199H118.959L118.739 68.5137ZM118.12 70.0235L117.966 69.4545C117.981 69.4121 117.981 69.3659 117.966 69.3234C117.909 69.3014 117.846 69.3014 117.789 69.3234C117.739 69.3082 117.685 69.3082 117.635 69.3234C117.624 69.3476 117.619 69.3735 117.619 69.3998C117.619 69.4261 117.624 69.4522 117.635 69.4764L117.789 70.0673L117.568 69.192H117.679C117.701 69.1493 117.733 69.1118 117.771 69.0816C117.809 69.0515 117.853 69.0295 117.9 69.017C117.944 68.9957 117.993 68.9844 118.043 68.9844C118.093 68.9844 118.142 68.9957 118.187 69.017C118.262 69.0699 118.317 69.1472 118.341 69.2358L118.12 70.0235ZM116.442 70.0235C116.431 70.0435 116.425 70.0662 116.425 70.0892C116.425 70.1123 116.431 70.135 116.442 70.1549H116.597C116.657 70.1314 116.71 70.0937 116.751 70.0454C116.761 70.0249 116.766 70.0024 116.766 69.9797C116.766 69.957 116.761 69.9345 116.751 69.914V69.739L116.442 70.0235ZM116.95 70.3299H116.818C116.779 70.3461 116.738 70.3545 116.696 70.3545C116.655 70.3545 116.613 70.3461 116.575 70.3299C116.536 70.3109 116.501 70.2833 116.475 70.2492C116.448 70.2151 116.429 70.1753 116.42 70.133C116.404 70.0987 116.396 70.0613 116.396 70.0235C116.396 69.9857 116.404 69.9483 116.42 69.914C116.465 69.8405 116.536 69.7861 116.619 69.7609H116.884C116.869 69.7166 116.838 69.6792 116.798 69.6551C116.757 69.6311 116.71 69.6221 116.663 69.6298H116.553C116.553 69.6298 116.553 69.5202 116.553 69.4326C116.608 69.3644 116.687 69.3181 116.774 69.3015C116.814 69.2784 116.86 69.2662 116.906 69.2662C116.953 69.2662 116.998 69.2784 117.039 69.3015C117.077 69.3153 117.112 69.3387 117.139 69.3693C117.166 69.3999 117.184 69.4367 117.193 69.4764L116.95 70.3299ZM114.389 71.3583V70.9865L113.859 70.2204L114.301 70.8331V70.0892H114.433L114.389 71.3583ZM113.175 70.5925H113.042V70.7239C113.063 70.7336 113.086 70.7386 113.109 70.7386C113.131 70.7386 113.154 70.7336 113.175 70.7239C113.185 70.6807 113.185 70.6356 113.175 70.5925ZM113.175 70.3518C113.185 70.4024 113.185 70.4543 113.175 70.5048C113.191 70.5392 113.199 70.5766 113.199 70.6144C113.199 70.6521 113.191 70.6896 113.175 70.7239C113.158 70.7603 113.133 70.7926 113.103 70.819C113.073 70.8454 113.037 70.8652 112.998 70.8769V71.03H113.219C113.25 71.0146 113.284 71.0068 113.318 71.0068C113.353 71.0068 113.387 71.0146 113.418 71.03C113.427 71.0733 113.427 71.1181 113.418 71.1614C113.428 71.2266 113.428 71.2931 113.418 71.3583C113.368 71.3767 113.313 71.3767 113.263 71.3583L112.822 71.4897H112.645C112.635 71.4391 112.635 71.387 112.645 71.3364C112.623 71.2801 112.623 71.2177 112.645 71.1614C112.696 71.1514 112.748 71.1514 112.799 71.1614V70.9646H112.667C112.657 70.914 112.657 70.8618 112.667 70.8112V70.6801C112.651 70.6457 112.643 70.6083 112.643 70.5706C112.643 70.5328 112.651 70.4954 112.667 70.461C112.667 70.461 112.667 70.3299 112.866 70.308H113.02H113.131L113.175 70.3518ZM112.093 70.9208V70.8112C112.066 70.7959 112.036 70.7877 112.005 70.7877C111.974 70.7877 111.943 70.7959 111.916 70.8112C111.873 70.7962 111.827 70.7962 111.784 70.8112C111.768 70.8378 111.76 70.8681 111.76 70.8988C111.76 70.9296 111.768 70.9599 111.784 70.9865V71.2709C111.784 71.2709 111.784 71.3802 111.784 71.4021C111.811 71.4175 111.841 71.4256 111.872 71.4256C111.903 71.4256 111.934 71.4175 111.96 71.4021C111.96 71.4021 112.071 71.4021 112.093 71.4021C112.109 71.3798 112.118 71.3529 112.118 71.3254C112.118 71.298 112.109 71.2714 112.093 71.249V70.9208ZM112.314 71.1833C112.335 71.2239 112.346 71.2688 112.346 71.3145C112.346 71.3602 112.335 71.4054 112.314 71.4459C112.29 71.492 112.256 71.532 112.213 71.5624C112.171 71.5928 112.122 71.6127 112.071 71.6209C112.026 71.6422 111.977 71.6535 111.927 71.6535C111.878 71.6535 111.829 71.6422 111.784 71.6209C111.741 71.5984 111.703 71.5674 111.672 71.5298C111.642 71.4921 111.62 71.4487 111.607 71.4021V71.1176C111.586 71.0771 111.575 71.0322 111.575 70.9865C111.575 70.9408 111.586 70.8956 111.607 70.855C111.631 70.809 111.665 70.769 111.707 70.7386C111.75 70.7082 111.799 70.6882 111.85 70.6801C111.895 70.6587 111.944 70.6475 111.994 70.6475C112.043 70.6475 112.092 70.6587 112.137 70.6801C112.219 70.7319 112.281 70.8087 112.314 70.8988V71.1833ZM110.592 70.5925L110.901 71.7304H111.166L110.503 71.9054V71.7961H110.768L110.481 70.7455H110.282L110.592 70.5925ZM109.819 71.5335C109.834 71.491 109.834 71.4446 109.819 71.4021C109.762 71.3801 109.699 71.3801 109.642 71.4021C109.591 71.3921 109.539 71.3921 109.488 71.4021C109.477 71.4263 109.472 71.4525 109.472 71.4788C109.472 71.5051 109.477 71.5309 109.488 71.5552V71.8615V71.993H109.664C109.715 72.007 109.768 72.007 109.819 71.993C109.829 71.9687 109.834 71.9426 109.834 71.9163C109.834 71.89 109.829 71.8639 109.819 71.8396V71.5335ZM110.062 71.7742C110.095 71.8661 110.095 71.9668 110.062 72.0587C110.005 72.1447 109.919 72.207 109.819 72.2336C109.775 72.2566 109.725 72.2686 109.675 72.2686C109.625 72.2686 109.576 72.2566 109.532 72.2336C109.487 72.2137 109.447 72.1836 109.417 72.1455C109.386 72.1074 109.365 72.0626 109.355 72.0149V71.7304C109.323 71.6458 109.323 71.5524 109.355 71.4678C109.412 71.3818 109.498 71.3192 109.598 71.2926C109.647 71.2708 109.699 71.2597 109.753 71.2597C109.806 71.2597 109.859 71.2708 109.907 71.2926C109.946 71.3116 109.981 71.3394 110.007 71.3735C110.034 71.4076 110.053 71.4474 110.062 71.4897V71.7742ZM109.002 72.3651L108.847 71.7961C108.857 71.7756 108.862 71.7531 108.862 71.7304C108.862 71.7077 108.857 71.6852 108.847 71.6647C108.821 71.6493 108.79 71.6412 108.759 71.6412C108.728 71.6412 108.698 71.6493 108.671 71.6647C108.671 71.6647 108.671 71.6647 108.538 71.6647C108.528 71.6852 108.523 71.7077 108.523 71.7304C108.523 71.7531 108.528 71.7756 108.538 71.7961L108.693 72.4086L108.45 71.5552C108.502 71.4788 108.581 71.4243 108.671 71.4021C108.716 71.3853 108.764 71.3785 108.811 71.3818C108.859 71.3851 108.906 71.3987 108.948 71.4216C108.99 71.4445 109.026 71.4761 109.054 71.5143C109.083 71.5525 109.103 71.5963 109.112 71.6428L109.002 72.3651ZM107.876 72.6712H107.743L107.589 72.0806V71.9492H107.412C107.37 71.9321 107.322 71.9321 107.28 71.9492C107.263 71.9989 107.263 72.0525 107.28 72.1022L107.434 72.6931L106.838 71.6866V72.1022H106.949C106.993 72.0809 107.042 72.0699 107.092 72.0699C107.142 72.0699 107.191 72.0809 107.236 72.1022C107.278 72.1234 107.314 72.1546 107.34 72.1928C107.367 72.2309 107.384 72.275 107.39 72.3213L107.876 72.6712ZM106.021 72.3867C106.011 72.4372 106.011 72.4895 106.021 72.54V72.8464C106.008 72.8891 106.008 72.9348 106.021 72.9776H106.198H106.33C106.345 73.0122 106.352 73.0495 106.352 73.0871C106.352 73.1246 106.345 73.1617 106.33 73.1963C106.274 73.2824 106.188 73.3449 106.088 73.3716C105.995 73.407 105.893 73.407 105.801 73.3716C105.756 73.3516 105.716 73.3215 105.686 73.2834C105.655 73.2454 105.634 73.2006 105.624 73.1528V72.8683C105.592 72.7837 105.592 72.6904 105.624 72.6057C105.68 72.5197 105.767 72.4572 105.867 72.4305H106.043H106.176H105.999C105.992 72.4303 105.985 72.4303 105.977 72.4305L106.021 72.3867ZM104.873 72.9121H105.315C105.306 72.884 105.292 72.8578 105.273 72.8352C105.254 72.8126 105.231 72.7941 105.204 72.7807C105.148 72.7587 105.085 72.7587 105.028 72.7807C104.985 72.7673 104.938 72.7673 104.895 72.7807C104.879 72.803 104.87 72.8299 104.87 72.8574C104.87 72.8848 104.879 72.9114 104.895 72.9338L104.873 72.9121ZM105.491 73.2621C105.467 73.3052 105.431 73.3417 105.389 73.3684C105.347 73.395 105.299 73.4113 105.249 73.4154C105.204 73.4367 105.155 73.4477 105.105 73.4477C105.055 73.4477 105.006 73.4367 104.962 73.4154C104.918 73.3929 104.881 73.3619 104.85 73.3243C104.82 73.2866 104.798 73.2429 104.785 73.1963V72.9121C104.753 72.8275 104.753 72.7339 104.785 72.6493C104.813 72.6026 104.852 72.5628 104.898 72.5325C104.944 72.5023 104.995 72.4825 105.05 72.4743C105.143 72.4409 105.244 72.4409 105.337 72.4743C105.414 72.5258 105.469 72.6037 105.491 72.6931V72.8464L104.939 72.9995C104.929 73.0426 104.929 73.0877 104.939 73.1309H105.116C105.159 73.1255 105.198 73.1047 105.227 73.0724C105.255 73.0401 105.271 72.9985 105.271 72.9557H105.403C105.403 72.9557 105.491 73.2183 105.447 73.3059L105.491 73.2621ZM103.769 72.8026L104.211 72.6712H103.769L103.902 73.1747C103.926 73.1863 103.952 73.1923 103.979 73.1923C104.006 73.1923 104.032 73.1863 104.056 73.1747H104.189V73.3716V73.4808H104.034C103.949 73.5149 103.854 73.5149 103.769 73.4808C103.73 73.4618 103.696 73.4343 103.669 73.4002C103.642 73.366 103.624 73.3263 103.615 73.284L103.482 72.7807V72.5619L103.769 72.8026Z" fill="#1A1A18"/>
</g>
<defs>
<clipPath id="clip0_2684_2855">
<rect width="181" height="176" fill="white"/>
</clipPath>
</defs>
</svg>
