<svg width="204" height="170" viewBox="0 0 204 170" fill="none" xmlns="http://www.w3.org/2000/svg">
<g clip-path="url(#clip0_4025_511)">
<path fill-rule="evenodd" clip-rule="evenodd" d="M18.3114 27.5798L11.3955 31.8652L18.9991 34.7549L20.9442 42.6573L26.0525 36.3078L34.167 36.8976L29.6873 30.0763L32.772 22.5474L24.913 24.6901L18.6847 19.4415L18.3114 27.5798Z" fill="#8B1B80"/>
<path fill-rule="evenodd" clip-rule="evenodd" d="M108.651 3.59736L103.464 2.37858L105.664 7.23404L102.894 11.7946L108.199 11.2049L111.676 15.2544L112.757 10.0254L117.669 7.96138L113.052 5.30759L112.6 0L108.651 3.59736Z" fill="#8B1B80"/>
<path fill-rule="evenodd" clip-rule="evenodd" d="M190.306 40.2L182.388 38.2539L185.669 45.7239L181.366 52.6434L189.461 51.8374L194.707 58.0689L196.455 50.1272L204 47.0409L196.986 42.9325L196.397 34.7942L190.306 40.2Z" fill="#8B1B80"/>
<path fill-rule="evenodd" clip-rule="evenodd" d="M187.575 84.2333L183.193 83.1522L185.001 87.2999L182.624 91.1332L187.123 90.7007L190.031 94.1605L190.993 89.7375L195.178 88.0273L191.288 85.747L190.954 81.2454L187.575 84.2333Z" fill="#8B1B80"/>
<path fill-rule="evenodd" clip-rule="evenodd" d="M186.317 138.469L181.936 137.388L183.744 141.536L181.366 145.369L185.846 144.936L188.773 148.376L189.736 143.973L193.921 142.263L190.031 139.983L189.697 135.481L186.317 138.469Z" fill="#8B1B80"/>
<path fill-rule="evenodd" clip-rule="evenodd" d="M4.51892 86.8085L0 89.6196L4.99046 91.5067L6.26755 96.6767L9.58798 92.5092L14.9125 92.9024L11.985 88.4401L13.989 83.506L8.84137 84.9214L4.77434 81.4813L4.51892 86.8085Z" fill="#8B1B80"/>
<path fill-rule="evenodd" clip-rule="evenodd" d="M14.8931 66.3055C14.8931 66.6749 15.0025 67.0359 15.2076 67.343C15.4127 67.6501 15.7042 67.8895 16.0452 68.0309C16.3863 68.1722 16.7616 68.2092 17.1237 68.1371C17.4857 68.065 17.8183 67.8872 18.0794 67.626C18.3404 67.3649 18.5182 67.0321 18.5902 66.6698C18.6622 66.3076 18.6252 65.9321 18.484 65.5909C18.3427 65.2496 18.1035 64.9579 17.7965 64.7527C17.4896 64.5475 17.1287 64.438 16.7595 64.438C16.2645 64.438 15.7898 64.6348 15.4397 64.985C15.0897 65.3352 14.8931 65.8102 14.8931 66.3055Z" fill="#8B1B80"/>
<path fill-rule="evenodd" clip-rule="evenodd" d="M11.3366 115.941C11.3327 116.187 11.402 116.428 11.5356 116.635C11.6692 116.841 11.8612 117.003 12.087 117.099C12.3128 117.196 12.5622 117.223 12.8036 117.178C13.045 117.132 13.2674 117.016 13.4425 116.844C13.6176 116.671 13.7374 116.451 13.7868 116.21C13.8361 115.969 13.8128 115.719 13.7197 115.492C13.6266 115.264 13.4681 115.07 13.2641 114.933C13.0601 114.796 12.82 114.723 12.5744 114.723C12.2495 114.722 11.9376 114.85 11.7061 115.078C11.4745 115.306 11.3417 115.616 11.3366 115.941Z" fill="#8B1B80"/>
<path fill-rule="evenodd" clip-rule="evenodd" d="M173.9 65.3226C173.9 65.6881 174.008 66.0453 174.211 66.3492C174.414 66.6531 174.703 66.8899 175.04 67.0298C175.377 67.1696 175.749 67.2062 176.107 67.1349C176.465 67.0636 176.794 66.8876 177.053 66.6292C177.311 66.3708 177.487 66.0416 177.558 65.6831C177.629 65.3247 177.593 64.9531 177.453 64.6155C177.313 64.2778 177.077 63.9892 176.773 63.7862C176.469 63.5832 176.112 63.4748 175.747 63.4748C175.257 63.4748 174.787 63.6694 174.441 64.016C174.094 64.3625 173.9 64.8325 173.9 65.3226Z" fill="#8B1B80"/>
<path fill-rule="evenodd" clip-rule="evenodd" d="M200.876 106.938C199.472 109.665 197.604 112.127 195.355 114.211C194.312 115.165 193.032 115.82 191.649 116.107C190.266 116.394 188.831 116.303 187.496 115.843C186.335 115.102 185.04 114.594 183.684 114.349C182.364 114.313 181.07 114.721 180.01 115.509C177.849 117.402 176.481 120.042 176.179 122.9C175.766 124.728 178.576 125.515 178.989 123.667C179.499 121.367 180.246 117.573 183.193 117.278C184.45 117.14 185.59 118.222 186.71 118.674C188.011 119.172 189.412 119.354 190.797 119.204C196.966 118.575 200.522 113.307 203.41 108.412C203.536 108.183 203.599 107.925 203.591 107.663C203.584 107.402 203.508 107.147 203.37 106.925C203.232 106.703 203.037 106.522 202.806 106.399C202.575 106.277 202.316 106.219 202.055 106.23C201.815 106.232 201.581 106.298 201.377 106.423C201.173 106.548 201.006 106.726 200.895 106.938" fill="#8B1B80"/>
<path fill-rule="evenodd" clip-rule="evenodd" d="M177.672 23.8251C177.418 23.8127 177.164 23.8725 176.942 23.9977C176.719 24.1229 176.537 24.3084 176.415 24.5328C175.531 26.6166 174.313 29.7028 171.641 29.8601C170.442 29.8601 169.676 28.9755 168.949 28.2088C168.151 27.2753 167.1 26.5927 165.923 26.243C164.705 26.0147 163.447 26.1311 162.291 26.5791C161.135 27.0271 160.127 27.789 159.381 28.7789C157.795 31.1591 156.917 33.9399 156.846 36.7992C156.846 37.185 156.999 37.555 157.272 37.8278C157.545 38.1006 157.914 38.2539 158.3 38.2539C158.684 38.2442 159.051 38.0884 159.324 37.8182C159.598 37.548 159.759 37.1837 159.774 36.7992C160.049 34.4403 160.343 31.3933 162.406 29.8404C163.138 29.2398 164.077 28.9504 165.019 29.0344C166.12 29.1917 166.827 30.2139 167.554 31.0002C168.401 31.8913 169.516 32.4812 170.729 32.6799C171.942 32.8786 173.187 32.6753 174.274 32.101C176.501 30.6932 178.158 28.5411 178.95 26.0268C179.126 25.6927 179.169 25.3043 179.071 24.9395C178.972 24.5748 178.74 24.2608 178.419 24.061C178.203 23.9227 177.949 23.8542 177.692 23.8645" fill="#8B1B80"/>
<path fill-rule="evenodd" clip-rule="evenodd" d="M7.58406 131.491C7.25702 131.475 6.93441 131.572 6.66992 131.765C6.40544 131.958 6.21495 132.236 6.13011 132.552C5.94728 133.648 6.01497 134.77 6.32803 135.836C6.6411 136.902 7.19144 137.883 7.9377 138.705C8.72935 139.497 9.69854 140.089 10.7647 140.431C11.8309 140.773 12.9633 140.855 14.0677 140.671C15.1952 140.455 16.2738 140.035 17.2506 139.432C18.0783 138.938 19.0034 138.63 19.962 138.528C20.8086 138.481 21.6505 138.683 22.3837 139.109C23.1169 139.535 23.7094 140.167 24.088 140.926C24.9328 142.617 27.4477 141.123 26.6028 139.452C26.1628 138.61 25.5589 137.866 24.8267 137.261C24.0944 136.657 23.2487 136.205 22.3393 135.933C21.4086 135.654 20.4311 135.566 19.4655 135.674C18.4999 135.782 17.5661 136.084 16.7201 136.562C14.9715 137.466 13.3997 138.528 11.3957 137.643C10.5918 137.284 9.92472 136.675 9.49311 135.907C9.0615 135.138 8.88819 134.252 8.99869 133.378C9.08554 133.006 9.02846 132.614 8.83895 132.283C8.64945 131.951 8.34152 131.703 7.97698 131.589C7.86646 131.57 7.75352 131.57 7.643 131.589" fill="#8B1B80"/>
<path fill-rule="evenodd" clip-rule="evenodd" d="M74.248 15.2544C74.248 15.6199 74.3564 15.9771 74.5593 16.281C74.7622 16.5848 75.0506 16.8217 75.3881 16.9616C75.7256 17.1014 76.097 17.138 76.4552 17.0667C76.8135 16.9954 77.1425 16.8194 77.4008 16.561C77.6591 16.3026 77.835 15.9733 77.9063 15.6149C77.9776 15.2565 77.941 14.8849 77.8012 14.5472C77.6614 14.2096 77.4247 13.921 77.1209 13.718C76.8172 13.515 76.4602 13.4066 76.0949 13.4066C75.6051 13.4066 75.1354 13.6012 74.789 13.9478C74.4426 14.2943 74.248 14.7643 74.248 15.2544Z" fill="#8B1B80"/>
<path fill-rule="evenodd" clip-rule="evenodd" d="M147.552 161.115L105.035 160.328C104.073 160.328 103.581 160.21 103.601 158.992C103.824 147.367 103.987 135.75 104.092 124.139C104.092 117.534 104.092 110.909 104.092 104.304C104.092 103.262 104.446 102.869 105.507 102.869L142.405 102.987H149.556V107.96C149.655 117.946 149.694 127.932 149.832 137.899C149.93 144.759 150.146 151.659 150.283 158.441C150.283 160.702 149.969 161.115 147.965 161.115H147.611M52.3407 158.5C52.5568 149.635 52.9105 140.808 53.048 131.903C53.1855 122.998 53.048 114.211 53.048 105.287C53.048 104.854 53.048 104.422 53.048 103.989C53.048 103.557 53.2052 102.967 54.0107 102.967C67.2793 102.967 80.5414 102.934 93.7969 102.869C95.1919 102.869 95.5455 103.262 95.5455 104.677C95.5455 113.641 95.5455 122.625 95.5455 131.589C95.5455 140.71 95.5455 149.831 95.5455 158.933C95.5455 159.994 95.2705 160.387 94.1899 160.407C89.278 160.407 84.3661 160.545 79.4542 160.623L55.0127 161.095H54.7573C52.714 161.095 52.2228 160.604 52.2818 158.5H52.3407ZM90.0639 71.3772C88.8261 71.0823 87.5686 70.8268 86.3309 70.5122C80.1263 69.1064 74.462 65.9313 70.0235 61.3714C64.3257 55.3758 64.5811 47.729 70.8486 42.2641C72.0725 41.1285 73.5811 40.3459 75.2141 39.9998C76.847 39.6536 78.5432 39.7568 80.1222 40.2983C83.7194 41.451 87.0312 43.3541 89.8389 45.882C92.6466 48.4099 94.8863 51.505 96.41 54.963C97.9849 58.6302 99.3493 62.3844 100.497 66.2072C100.578 66.3744 100.677 66.5326 100.791 66.679C100.945 66.5131 101.077 66.3281 101.184 66.1286C104.819 55.828 112.187 49.105 121.834 44.6231C123.338 43.8062 125.018 43.3669 126.729 43.3429C128.44 43.3189 130.131 43.711 131.658 44.4854C135.292 46.4512 139.084 53.8229 138.593 57.951C138.361 59.3614 137.824 60.7042 137.02 61.8857C136.216 63.0672 135.163 64.059 133.937 64.7918C129.428 67.8035 124.308 69.7773 118.946 70.5712C117.197 70.9054 115.448 71.1413 113.7 71.4362C113.7 71.5541 113.7 71.6917 113.7 71.8097H117.158H149.576C150.733 71.8099 151.888 71.8887 153.034 72.0455C153.542 72.045 154.045 72.1476 154.512 72.3473C154.979 72.547 155.401 72.8395 155.752 73.2071C156.103 73.5747 156.376 74.0098 156.554 74.4859C156.731 74.9621 156.811 75.4693 156.787 75.9771C156.964 79.2403 156.787 82.5231 156.787 85.806C156.787 89.0888 156.787 92.2733 156.787 95.4972C156.787 98.7211 156.079 99.6253 153.073 99.8809C149.458 100.176 145.843 100.254 142.228 100.294C130.223 100.412 118.219 100.431 106.214 100.549C104.839 100.549 104.524 100.058 104.505 98.7604C104.505 90.8973 104.387 83.0342 104.308 75.1711C104.308 74.7976 104.308 74.4045 104.308 74.0113C104.19 72.1438 104.151 72.0455 102.344 72.0455H100.634C99.4692 72.1045 98.302 72.1045 97.137 72.0455C95.6241 71.9473 95.1722 72.6746 95.1722 74.0113C95.1722 76.1344 95.1723 78.2574 95.074 80.3805C95.074 86.5137 94.9168 92.6468 94.9168 98.7604C94.9168 100.117 94.5828 100.608 93.1485 100.608C79.7489 100.608 66.3494 100.726 52.9301 100.746C51.4878 100.766 50.047 100.647 48.6273 100.392C48.183 100.384 47.746 100.278 47.3474 100.081C46.9487 99.8852 46.5981 99.6035 46.3205 99.2563C46.0429 98.9092 45.8451 98.5051 45.7413 98.0729C45.6374 97.6406 45.6299 97.1908 45.7195 96.7553C46.1124 91.3222 46.073 85.8663 45.6016 80.4394C45.6016 79.0437 45.3462 77.648 45.3265 76.2523C45.3265 73.0874 46.2303 72.0259 49.4132 71.967C54.384 71.8687 59.3549 71.967 64.306 71.967H89.0422C89.4264 71.9001 89.7707 71.6892 90.0049 71.3772H90.0639ZM62.2823 38.2736C59.6675 41.5095 57.9407 45.3714 57.2722 49.4785C56.9773 51.3739 56.9773 53.3035 57.2722 55.1989C57.8382 57.7617 58.5333 60.2942 59.3548 62.7868C57.3901 62.7868 55.5629 62.6688 53.6964 62.7868C50.5272 62.8844 47.3721 63.2527 44.2656 63.8876C42.4817 64.3642 40.8618 65.3192 39.5806 66.6495C38.2995 67.9798 37.4058 69.6349 36.996 71.4362C36.2867 74.9824 36.154 78.62 36.603 82.2086C36.7209 85.9239 36.996 89.6392 36.8388 93.3349C36.6974 95.7312 36.8624 98.1358 37.33 100.49C37.6513 102.028 38.3241 103.471 39.2955 104.706C40.267 105.94 41.5107 106.933 42.9295 107.606C43.3105 107.766 43.6314 108.042 43.8466 108.395C44.0617 108.748 44.1602 109.16 44.128 109.572C44.128 116.197 44.128 122.802 44.128 129.407C43.9315 139 43.4993 148.593 43.4011 158.205C43.434 160.512 43.9634 162.785 44.9532 164.869C46.8001 168.801 50.5528 170 54.4823 170C65.8582 170 77.2341 169.646 88.61 169.45H90.5747C93.5084 169.625 96.4497 169.272 99.2589 168.408C99.6802 168.321 100.115 168.321 100.536 168.408C103.542 168.722 106.548 169.233 109.554 169.312C122.384 169.607 135.194 169.843 148.024 169.902C150.08 169.867 152.099 169.348 153.918 168.388C155.629 167.456 157.029 166.044 157.948 164.325C158.866 162.607 159.261 160.657 159.086 158.716C158.928 149.064 158.575 139.432 158.398 129.78C158.3 122.782 158.398 115.804 158.398 108.806C158.381 108.398 158.483 107.995 158.693 107.646C158.902 107.296 159.21 107.016 159.577 106.84C161.047 105.906 162.371 104.76 163.506 103.439C165.286 101.004 166.143 98.0146 165.923 95.0058C165.923 90.5238 165.923 86.0222 166.041 81.5403C166.29 78.1721 165.951 74.7863 165.039 71.5345C164.507 69.5875 163.451 67.8242 161.985 66.4374C160.519 65.0507 158.7 64.0938 156.728 63.6714C153.938 63.1886 151.124 62.854 148.299 62.6688C147.808 62.6688 147.297 62.6688 146.649 62.5509C146.826 61.6663 147.002 60.9783 147.101 60.2706C147.411 58.9098 147.57 57.5186 147.572 56.1228C147.055 50.157 144.59 44.5273 140.558 40.1017C138.703 37.9808 136.353 36.3508 133.718 35.3563C131.082 34.3618 128.242 34.0337 125.449 34.401C120 35.0643 114.837 37.2056 110.517 40.5932C107.786 42.559 105.094 44.7213 102.324 46.8443C102.167 46.6478 101.951 46.4119 101.754 46.1367C97.566 39.902 91.6343 35.0406 84.7001 32.1601C80.8263 30.647 76.5724 30.4027 72.551 31.4625C68.5295 32.5223 64.9479 34.8314 62.3216 38.0574L62.2823 38.2736Z" fill="#8B1B80"/>
</g>
<defs>
<clipPath id="clip0_4025_511">
<rect width="204" height="170" fill="white"/>
</clipPath>
</defs>
</svg>
