<svg width="208" height="165" viewBox="0 0 208 165" fill="none" xmlns="http://www.w3.org/2000/svg">
<g clip-path="url(#clip0_4025_1119)">
<path d="M208 104.027L189.652 0L0 109.035L20.7944 165L208 104.027Z" fill="#0078FF"/>
<path d="M9.65591 103.485L11.9726 109.931L2.31669 115.201L0.0185547 109.016L9.65591 103.485Z" fill="#00E600"/>
<path d="M10.9531 138.428L20.7202 134.149L26.3358 149.733L16.5131 153.396L10.9531 138.428Z" fill="#F90184"/>
<path d="M17.9775 157.32L27.8002 153.807L29.2644 157.88L19.4231 161.225L17.9775 157.32Z" fill="#00E600"/>
<path d="M19.2188 130.019L47.13 117.275L48.2235 120.583L20.2937 132.99L19.2188 130.019Z" fill="#00E600"/>
<path d="M21.6475 136.728L49.6143 124.768L58.8069 152.611L30.6732 161.786L21.6475 136.728Z" fill="#9D00FF"/>
<path d="M121.394 102.214L201.828 69.5317L202.718 74.6331L122.431 106.288L121.394 102.214Z" fill="#00E600"/>
<path d="M123.747 111.426L203.848 81.0425L207.907 104.045L128.492 129.926L123.747 111.426Z" fill="#9D00FF"/>
<path d="M88.2188 58.3199L96.2067 87.265L45.277 111.651L37.3262 87.5827L88.2188 58.3199Z" fill="#9D00FF"/>
<path d="M48.4648 121.311L99.3945 98.8318L101.155 105.223L50.244 126.656L48.4648 121.311Z" fill="#F90184"/>
<path d="M58.1572 150.686L109.031 133.757L109.661 136.055L58.8059 152.611L58.1572 150.686Z" fill="#00E600"/>
<path d="M107.327 47.3324L107.846 49.4066L88.7377 60.2633L88.2188 58.3199L107.327 47.3324Z" fill="#00E600"/>
<path d="M88.7373 60.2633L107.845 49.4066L114.276 74.4275L95.224 83.752L88.7373 60.2633Z" fill="#F90184"/>
<path d="M95.2246 83.752L114.277 74.4275L128.492 129.926L109.662 136.055L95.2246 83.752Z" fill="#00E600"/>
<path d="M133.088 46.2672L125.026 50.6025L121.06 59.3663C120.262 60.9107 119.7 62.5675 119.392 64.2808L118.373 64.8227L116.019 55.4796L103.435 62.3375L103.175 77.0062C103.124 78.7358 103.304 80.4644 103.713 82.145L102.675 82.6308C102.304 81.073 101.678 79.5888 100.822 78.2396L93.89 67.5322L87.8667 70.7838L99.3018 88.3487L109.421 83.5839L110.07 61.0668L110.626 60.7677L115.722 80.6126L121.672 77.6789L119.466 68.8965L120.504 68.3732C121.559 69.496 122.86 70.3536 124.303 70.8771L130.327 73.6052L139.315 69.3636L125.341 62.9915L133.088 46.2672ZM92.8336 84.9105L86.5694 87.9938C85.1443 88.5571 83.9767 89.6328 83.2922 91.0132C82.6076 92.3936 82.4546 93.9808 82.8627 95.4683C82.9852 96.1566 83.2968 96.7964 83.762 97.315C84.2273 97.8337 84.8275 98.2102 85.4944 98.402L85.7168 99.1869L78.0996 102.662L79.4896 107.297L85.8836 104.475L89.5903 117.555L94.724 115.5L91.0174 102.251L96.948 99.6353C96.9773 100.983 97.183 102.322 97.5596 103.616C99.7281 111.37 104.676 112.398 111.2 109.819C115.444 108.137 119.355 104.924 119.985 100.065L120.8 99.7288C122.413 102.158 125.675 104.157 133.107 101.205C138.5 99.0747 143.393 95.0011 142.003 89.0962C141.113 85.359 138.704 83.4903 132.143 85.5645L127.528 87.0221C125.675 87.5827 124.841 87.5454 124.563 86.4242C124.211 85.0227 125.675 83.6958 128.399 82.4812C131.717 80.9863 133.681 81.6777 133.959 83.1913L145.543 78.0713L147.396 85.8822C148.675 91.4881 151.751 92.7215 157.534 90.4044L164.391 87.676L163.001 81.1358L158.331 83.0045C155.791 84.0696 154.624 83.2661 154.049 81.1358L152.678 74.9321L165.058 69.4569L163.798 63.4026L153.475 68.1864C152.011 68.8591 150.547 68.5601 150.046 66.3177L148.767 60.5248L141.688 63.9445L142.299 66.5978C142.874 69.1018 143.8 70.7276 145.617 70.9145L145.802 71.6994L139.093 74.7638L139.871 78.0339L139.13 78.3703C136.369 75.0815 132.514 75.3244 127.102 77.847C121.69 80.3697 117.835 84.3872 119.281 89.7502C120.448 94.3283 124.248 94.5899 127.621 93.4875L132.94 91.8243C134.645 91.3198 135.775 91.1331 136.109 92.4786C136.443 93.824 135.182 95.1879 132.013 96.4959C128.844 97.804 126.768 96.8511 126.453 95.6925L114.203 100.813C114.017 102.681 111.701 104.195 109.977 104.905C106.641 106.269 104.306 105.82 103.453 102.662L119.485 95.8419L118.743 92.9644C117.279 87.3585 111.96 84.9106 105.121 88.0686C100.766 90.1054 97.8191 93.2073 97.189 97.4118L96.4847 97.7106L95.6507 94.6834L91.1842 96.7201C90.9566 96.8605 90.699 96.944 90.433 96.9633C90.1669 96.9826 89.9002 96.9372 89.6551 96.831C89.41 96.7248 89.1937 96.561 89.0244 96.3531C88.8552 96.1453 88.7378 95.8995 88.6822 95.6364C88.5172 95.0599 88.563 94.4429 88.8113 93.8976C89.0597 93.3523 89.4939 92.915 90.0351 92.6654L94.5016 90.5725L92.8336 84.9105ZM102.341 98.9626C101.711 96.6269 103.342 94.3098 106.326 92.9644C108.995 91.7685 111.775 92.1609 112.405 94.5714L102.341 98.9626ZM116.538 110.286C113.016 111.669 112.553 114.453 113.498 118.004C114.444 121.554 116.204 123.423 119.651 122.208C123.154 120.956 123.821 118.471 122.802 114.547C121.783 110.623 120.226 108.885 116.612 110.286H116.538ZM119.04 119.798C117.613 120.302 116.871 119.667 116.167 117.014C115.463 114.36 115.908 113.164 117.168 112.678C118.428 112.192 119.336 112.678 120.096 115.537C120.856 118.396 120.56 119.275 119.114 119.798H119.04ZM127.157 106.306C125.916 106.649 124.83 107.416 124.087 108.476C123.343 109.536 122.987 110.823 123.08 112.118L126.008 111.015C126.008 109.819 126.694 109.147 127.862 108.773C128.073 108.66 128.308 108.599 128.547 108.596C128.786 108.593 129.023 108.648 129.237 108.756C129.451 108.864 129.636 109.022 129.777 109.216C129.919 109.411 130.012 109.637 130.049 109.875C130.401 111.277 129.845 111.538 128.473 112.884L126.62 114.622C124.637 116.49 124.433 117.593 124.767 119.181C124.833 119.451 124.939 119.709 125.082 119.947L134.348 116.659L133.737 114.136L131.513 114.939C130.153 115.464 128.834 116.088 127.565 116.808V116.621C128.603 115.425 131.049 113.912 132.161 112.417C132.571 111.898 132.854 111.289 132.986 110.64C133.118 109.99 133.096 109.319 132.921 108.679C132.217 105.559 129.882 105.26 127.232 106.306H127.157ZM106.882 114.192C105.75 114.51 104.771 115.23 104.124 116.219C103.477 117.208 103.206 118.399 103.361 119.574L105.992 118.583C105.933 118.107 106.057 117.626 106.34 117.239C106.623 116.853 107.043 116.592 107.512 116.509C107.713 116.41 107.933 116.359 108.157 116.362C108.38 116.364 108.6 116.419 108.798 116.523C108.996 116.626 109.168 116.776 109.298 116.958C109.429 117.141 109.516 117.352 109.551 117.574C109.903 118.882 109.402 119.125 108.179 120.358L106.641 121.965C104.899 123.834 104.788 124.712 105.158 126.207C105.223 126.463 105.323 126.708 105.455 126.936L113.758 123.984L113.109 121.61L111.126 122.339C109.908 122.814 108.73 123.389 107.605 124.058V123.89C108.513 122.788 110.7 121.405 111.664 120.003C112.027 119.509 112.269 118.933 112.369 118.326C112.468 117.718 112.424 117.096 112.238 116.509C111.478 113.557 109.347 113.183 106.956 114.192H106.882ZM142.837 100.42L134.256 103.84L134.738 111.52L137.777 110.399C138.155 109.794 138.723 109.334 139.389 109.091C140.594 108.661 141.521 108.736 141.799 109.913C142.077 111.09 141.335 111.781 139.945 112.23C138.555 112.678 137.684 112.417 137.536 111.856L134.348 113.015C135.349 115.425 137.833 115.743 140.446 114.883L141.169 114.64C143.949 113.538 145.58 111.482 144.875 108.717C144.171 105.951 141.929 105.466 139.834 106.25C138.815 106.57 137.933 107.229 137.332 108.119H137.203L137.091 105.26L142.651 103.13L142.837 100.42Z" fill="white"/>
<path d="M30.2466 108.941C30.5246 108.792 30.7285 108.941 30.8767 109.333C31.025 109.726 30.8767 110.025 30.6729 110.156C30.469 110.287 30.191 110.156 30.0613 109.763C29.9315 109.371 30.0613 109.072 30.2466 108.941ZM26.2619 112.398L26.4658 112.996C26.6141 113.407 26.5585 113.669 26.2805 113.799C26.0025 113.93 25.8171 113.8 25.6874 113.407L25.4835 112.809L25.2611 112.211C25.1314 111.8 25.2611 111.539 25.4465 111.408L25.8357 111.202L26.6326 110.791L27.0403 110.585C27.2998 110.455 27.5037 110.585 27.6334 110.997C27.7631 111.408 27.6334 111.669 27.4481 111.8L27.0589 112.006L26.2619 112.398ZM29.0605 112.398L29.2829 113.015C29.4126 113.407 29.2829 113.687 29.079 113.818C28.8751 113.949 28.6157 113.818 28.4859 113.407L28.2635 112.809L28.0597 112.211C27.9114 111.8 28.0597 111.52 28.245 111.389C28.4303 111.258 28.7269 111.389 28.8566 111.8L29.0605 112.398ZM28.3006 115.612L28.523 116.21C28.6527 116.602 28.523 116.883 28.3191 116.995C28.1153 117.107 27.8558 116.995 27.7261 116.602L27.5222 116.005L27.2998 115.406C27.1701 115.014 27.2998 114.734 27.5037 114.603L27.8929 114.416L28.2821 114.211C28.5601 114.08 28.7639 114.211 28.8937 114.622C29.0234 115.033 28.8937 115.276 28.7083 115.406L28.3006 115.612ZM31.5254 114.024L32.3409 113.631L31.9146 112.398L31.0991 112.809L31.5254 114.024ZM32.7486 114.846L32.971 115.444C33.1007 115.855 32.971 116.117 32.7671 116.247C32.5633 116.378 32.2853 116.248 32.1555 115.836L31.9331 115.238L31.5254 115.444C31.2659 115.575 31.0621 115.444 30.9138 115.033L30.7099 114.435L30.3022 114.622C30.0427 114.753 29.8389 114.622 29.6906 114.211C29.5423 113.8 29.6906 113.557 29.8945 113.407L30.3022 113.22L30.0798 112.604C29.9501 112.192 30.0798 111.931 30.2837 111.8L30.6914 111.595L31.5069 111.184L31.9146 110.978C32.1741 110.828 32.3965 110.978 32.5262 111.389L32.7301 111.987L33.1563 113.22L33.3602 113.837C33.5085 114.229 33.3602 114.51 33.1563 114.64L32.7486 114.846ZM28.7454 118.191C29.0049 118.06 29.2087 118.191 29.3385 118.602C29.4682 119.013 29.3385 119.256 29.1531 119.387C28.9678 119.517 28.6898 119.387 28.5601 118.976C28.4303 118.565 28.4859 118.322 28.7454 118.191ZM31.9517 116.64C32.2111 116.509 32.4335 116.64 32.5633 117.051C32.693 117.462 32.5633 117.724 32.3594 117.854C32.1555 117.985 31.8961 117.855 31.7478 117.443C31.5995 117.032 31.6737 116.771 31.9517 116.64ZM33.5826 115.855C33.8606 115.724 34.0645 115.855 34.1942 116.266C34.3239 116.677 34.1942 116.939 33.9903 117.07C33.7865 117.2 33.5085 117.07 33.3787 116.659C33.249 116.247 33.3046 115.986 33.5826 115.855ZM24.8534 121.461L25.0758 122.04C25.2055 122.433 25.0758 122.694 24.8905 122.806C24.7051 122.919 24.4457 122.806 24.2974 122.414L24.0935 121.835L23.8897 121.237C23.7599 120.863 23.8897 120.601 24.0565 120.471C24.2233 120.34 24.5198 120.471 24.6495 120.882L24.8534 121.461ZM27.967 119.966L28.1709 120.564C28.3191 120.956 28.1709 121.218 27.9855 121.349C27.8002 121.48 27.5407 121.349 27.3925 120.938L27.1886 120.34L26.7809 119.162L26.5585 118.583C26.4287 118.172 26.5585 117.91 26.7438 117.798L27.1515 117.593L27.5407 117.406C27.8002 117.275 28.0041 117.406 28.1338 117.817C28.2635 118.228 28.1338 118.471 27.9485 118.602L27.5593 118.789L27.967 119.966ZM18.8856 125.572C19.1266 125.46 19.3304 125.572 19.4602 125.964C19.5899 126.357 19.4602 126.6 19.2934 126.712C19.1266 126.824 18.8671 126.712 18.7188 126.319C18.5706 125.927 18.6447 125.759 18.8856 125.628V125.572ZM20.739 124.712L21.1097 124.525C21.3506 124.413 21.5545 124.526 21.6842 124.918C21.8139 125.31 21.6842 125.553 21.5174 125.665L21.1467 125.852L20.7761 126.02C20.5166 126.133 20.3313 126.02 20.2015 125.628C20.0718 125.236 20.1089 124.993 20.3683 124.881L20.739 124.712ZM26.8179 121.816L27.0218 122.414C27.1701 122.806 27.0218 123.049 26.8365 123.18C26.6511 123.311 26.3917 123.18 26.2434 122.769L26.0395 122.19L25.6318 121.012L25.2241 119.835L24.7978 118.658L24.5939 118.079C24.4642 117.686 24.5939 117.425 24.7793 117.294L25.1685 117.107L24.9646 116.509C24.8163 116.11 24.8719 115.849 25.1314 115.724L25.5206 115.537L25.3167 114.939C25.187 114.547 25.3167 114.267 25.5021 114.136C25.6874 114.005 25.9654 114.136 26.0951 114.547L26.3175 115.145L26.5214 115.743C26.6511 116.135 26.5214 116.397 26.3361 116.528L25.9469 116.715L26.1507 117.313C26.299 117.705 26.1507 117.967 25.9654 118.097L25.5762 118.284L26.0025 119.461L26.4102 120.639L26.8179 121.816ZM38.5681 116.21C38.8646 116.079 39.0685 116.21 39.1982 116.64C39.328 117.07 39.1982 117.313 38.9944 117.443C38.7905 117.574 38.4939 117.443 38.3642 117.032C38.2345 116.621 38.2901 116.453 38.5681 116.304V116.21ZM20.0347 126.338C20.2756 126.207 20.461 126.338 20.6093 126.73C20.7575 127.123 20.6093 127.347 20.4425 127.459C20.2757 127.571 19.9976 127.459 19.8679 127.067C19.7382 126.675 19.7938 126.544 20.0347 126.431V126.338ZM23.3893 124.75L23.5931 125.329C23.7414 125.721 23.5931 125.964 23.4263 126.077C23.2595 126.189 22.9815 126.076 22.8518 125.684L22.6479 125.105L22.4441 124.525C22.2958 124.152 22.4441 123.89 22.6109 123.778L22.9815 123.591L23.7414 123.236L24.1306 123.068C24.3715 122.937 24.5754 123.068 24.7051 123.46C24.8349 123.853 24.7051 124.096 24.5383 124.227L24.1491 124.395L23.3893 124.75ZM34.4166 119.592L34.6205 120.19C34.7502 120.601 34.6205 120.863 34.4166 120.975C34.2127 121.087 33.9347 120.975 33.805 120.583L33.6011 119.966L33.3973 119.368C33.249 118.976 33.3973 118.714 33.6011 118.583L34.0089 118.378L34.4166 118.191C34.6761 118.06 34.8985 118.191 35.0282 118.602C35.1579 119.013 35.0282 119.275 34.8243 119.405L34.4166 119.592ZM41.9782 116.042L42.1821 116.659C42.3304 117.088 42.1821 117.35 41.9597 117.481C41.7373 117.612 41.4593 117.481 41.3296 117.07L41.1257 116.453L40.6809 116.659C40.4029 116.789 40.199 116.659 40.0508 116.229C39.9025 115.799 40.0507 115.556 40.2731 115.406L40.6994 115.22L41.1257 115.014C41.4222 114.865 41.6261 115.014 41.7744 115.425L41.9782 116.042ZM19.7382 127.814C19.9791 127.702 20.183 127.814 20.3127 128.207C20.4425 128.599 20.3127 128.823 20.1459 128.936C19.9791 129.048 19.7011 128.935 19.5714 128.543C19.4416 128.151 19.4602 128.02 19.7011 127.908L19.7382 127.814ZM24.2233 125.721C24.4642 125.609 24.6681 125.722 24.7978 126.133C24.9275 126.544 24.7978 126.768 24.631 126.88C24.4642 126.992 24.1862 126.88 24.0379 126.488C23.8897 126.095 23.9267 125.946 24.1862 125.815L24.2233 125.721ZM30.0427 123.031L30.2466 123.628C30.3763 124.021 30.2466 124.264 30.0427 124.395C29.8389 124.525 29.5794 124.395 29.4497 123.984L29.2458 123.404L28.8566 123.591C28.5971 123.703 28.3933 123.591 28.245 123.18C28.0967 122.769 28.245 122.526 28.4489 122.414L28.8381 122.227L28.6342 121.629C28.4859 121.237 28.6342 120.975 28.8195 120.863C29.0049 120.751 29.2829 120.863 29.4126 121.255L29.6165 121.853L30.4134 121.48L30.0057 120.303L29.8018 119.704C29.6535 119.312 29.8018 119.05 29.9871 118.92L30.3949 118.714L29.9686 117.518L29.5794 117.724C29.3014 117.855 29.1161 117.724 28.9678 117.313C28.8195 116.901 28.9678 116.659 29.1531 116.528L29.5609 116.322L29.357 115.724C29.2087 115.332 29.357 115.052 29.5423 114.921C29.7277 114.79 30.0057 114.921 30.1539 115.332L30.3578 115.93L30.7841 117.144L31.1918 118.34L31.5995 118.154C31.859 118.016 32.0629 118.147 32.2111 118.546L32.415 119.162L32.6189 119.761C32.7486 120.153 32.6189 120.414 32.415 120.545C32.2111 120.676 31.9517 120.545 31.8034 120.134L31.5995 119.536L30.8026 119.91L31.2103 121.106L31.4142 121.704C31.5625 122.096 31.4142 122.358 31.2289 122.489L30.8211 122.675L30.0427 123.031ZM40.718 118.079L41.1442 117.892C41.4222 117.761 41.6446 117.892 41.7744 118.303C41.9041 118.714 41.7744 118.976 41.552 119.107L41.1257 119.312L40.6994 119.499C40.4214 119.63 40.199 119.499 40.0693 119.088C39.9396 118.677 40.0693 118.415 40.2917 118.284L40.718 118.079ZM32.8413 123.105L33.0451 123.703C33.1749 124.096 33.0451 124.357 32.8413 124.488C32.6374 124.619 32.3779 124.488 32.2482 124.077L32.0443 123.479L31.8405 122.881C31.6922 122.489 31.8405 122.227 32.0258 122.115L32.4335 121.928L32.8227 121.741C33.1007 121.61 33.3046 121.741 33.4343 122.152C33.5641 122.564 33.4343 122.806 33.249 122.937L32.8413 123.105ZM36.1031 121.61L36.5109 121.424C36.7889 121.312 36.9928 121.424 37.1225 121.835C37.2522 122.246 37.1225 122.507 36.9186 122.638L36.5109 122.825L36.1031 123.012C35.8251 123.124 35.6213 123.012 35.473 122.601C35.3247 122.19 35.473 121.928 35.6954 121.816L36.1031 121.61ZM39.4392 120.097L39.643 120.695C39.7728 121.106 39.643 121.367 39.4206 121.498L38.9944 121.685L38.5866 121.872C38.3086 122.003 38.1047 121.872 37.9565 121.461L37.7526 120.863L37.3449 119.648L36.9186 119.835C36.6406 119.966 36.4367 119.835 36.307 119.424L36.1031 118.826L35.8993 118.209C35.751 117.798 35.8993 117.537 36.1031 117.406C36.307 117.275 36.585 117.406 36.7147 117.817L36.9371 118.434L37.7711 118.041L38.1789 117.836C38.4569 117.705 38.6793 117.836 38.809 118.266L39.0129 118.864L39.4392 120.097ZM42.4045 118.714C42.701 118.583 42.9049 118.714 43.0532 119.144C43.2014 119.574 43.0532 119.817 42.8308 119.947C42.6084 120.078 42.3304 119.947 42.1821 119.536C42.0338 119.125 42.0894 118.938 42.3674 118.789L42.4045 118.714ZM24.6495 128.207L25.0387 128.038C25.2797 127.908 25.4835 128.039 25.6133 128.431C25.743 128.823 25.6133 129.066 25.4465 129.178L25.0573 129.347L24.6866 129.515C24.4271 129.627 24.2418 129.515 24.1121 129.122L23.9082 128.543L23.1483 128.879L22.407 129.234L22.0363 129.403C21.7769 129.515 21.5915 129.403 21.4618 128.991C21.3321 128.58 21.4618 128.375 21.6286 128.263L21.9993 128.095L22.7406 127.74L23.5005 127.403L23.8711 127.235C24.1306 127.104 24.3159 127.235 24.4457 127.627L24.6495 128.207ZM22.7962 130.356L23.1669 130.187C23.4078 130.075 23.6117 130.187 23.7414 130.598C23.8711 131.01 23.7414 131.215 23.5746 131.327L23.1854 131.496L22.8147 131.664C22.5738 131.776 22.3885 131.664 22.2402 131.253C22.0919 130.842 22.2402 130.636 22.407 130.524L22.7962 130.356ZM32.0629 126.207L32.2667 126.787C32.3965 127.179 32.2667 127.44 32.0629 127.553C31.859 127.665 31.5995 127.553 31.4698 127.142L31.2659 126.562L31.0621 125.983C30.9138 125.591 31.0621 125.329 31.2474 125.217L31.6551 125.03L32.0443 124.843C32.3038 124.731 32.5077 124.843 32.6559 125.254C32.8042 125.665 32.6559 125.908 32.4521 126.02L32.0629 126.207ZM21.7213 132.15L22.0919 131.981C22.3514 131.869 22.5367 131.981 22.6665 132.392C22.7962 132.804 22.6665 133.009 22.4997 133.103L22.129 133.271L21.7583 133.439C21.5174 133.551 21.332 133.439 21.1838 133.046L20.9985 132.486L20.5907 131.365L20.3868 130.804C20.2509 130.406 20.3065 130.163 20.5536 130.075C20.7946 129.963 20.9799 130.075 21.1282 130.468L21.3321 131.028L21.7213 132.15ZM26.9847 129.814L27.1886 130.393C27.3369 130.767 27.1886 131.01 27.0218 131.122L26.6326 131.29L26.2434 131.458C26.0025 131.57 25.7986 131.458 25.6689 131.066C25.5391 130.673 25.6689 130.43 25.8542 130.318L26.2249 130.15L26.021 129.571C25.8913 129.197 26.021 128.954 26.2063 128.842C26.3917 128.73 26.6511 128.842 26.7809 129.234L26.9847 129.814ZM31.2659 127.945C31.5439 127.833 31.7293 127.945 31.8775 128.356C32.0258 128.767 31.8775 128.992 31.6737 129.104C31.4698 129.216 31.2103 129.104 31.0806 128.711C30.9509 128.319 30.9694 128.132 31.1547 128.001L31.2659 127.945ZM23.9823 132.486C24.2418 132.486 24.4271 132.486 24.5569 132.897C24.6866 133.308 24.5569 133.513 24.3901 133.626C24.2233 133.738 23.9453 133.626 23.8155 133.215C23.6858 132.803 23.7414 132.654 23.9453 132.542L23.9823 132.486ZM30.8953 129.459C31.1547 129.346 31.3586 129.459 31.4883 129.87C31.6181 130.281 31.4883 130.505 31.303 130.617C31.1177 130.729 30.8397 130.617 30.7099 130.206C30.5802 129.795 30.5987 129.627 30.8582 129.515L30.8953 129.459ZM34.4722 127.889L34.6761 128.468C34.8058 128.861 34.6761 129.122 34.4722 129.234C34.2683 129.346 34.0089 129.234 33.8791 128.823L33.6753 128.244L33.2675 128.412C33.0081 128.524 32.8042 128.412 32.6745 128.001C32.5447 127.59 32.6745 127.366 32.8598 127.235L33.2675 127.067L33.0637 126.469C32.9154 126.076 33.0637 125.815 33.249 125.703C33.4343 125.591 33.7309 125.703 33.8606 126.114L34.0645 126.712L34.4722 127.889ZM34.8799 130.412C35.1579 130.281 35.3618 130.412 35.4915 130.823C35.6213 131.234 35.4915 131.458 35.2877 131.57C35.0838 131.682 34.8243 131.57 34.6761 131.159C34.5278 130.748 34.5834 130.58 34.8614 130.468L34.8799 130.412ZM22.963 136.821C23.2039 136.709 23.4078 136.821 23.5375 137.213C23.6673 137.606 23.5375 137.83 23.3707 137.924C23.2039 138.017 22.9259 137.924 22.7962 137.531C22.6665 137.139 22.685 136.971 22.9259 136.877L22.963 136.821ZM24.8163 136.036L25.187 135.868C25.4465 135.756 25.6318 135.868 25.7615 136.279C25.8913 136.69 25.7615 136.877 25.5947 136.989L25.2241 137.157L24.8534 137.307C24.5939 137.419 24.4086 137.307 24.2789 136.896L24.075 136.354L23.7043 136.503C23.4634 136.615 23.2595 136.503 23.1298 136.111L22.9259 135.55L22.5738 135.7C22.3143 135.812 22.129 135.7 21.9993 135.307C21.8695 134.915 21.9993 134.691 22.1661 134.597L22.5367 134.429L23.2781 134.111L23.6487 133.943C23.8897 133.831 24.075 133.943 24.2233 134.354L24.4271 134.915L24.8163 136.036ZM28.523 134.411L29.2829 134.093L28.8751 132.953L28.1153 133.271L27.3554 133.607L26.577 133.943L26.9847 135.064L27.7446 134.747L28.523 134.411ZM41.3666 128.954L41.5705 129.552C41.7002 129.945 41.5705 130.206 41.3481 130.318C41.1257 130.43 40.8662 130.318 40.718 129.907L40.5141 129.309L40.3288 128.711C40.1805 128.319 40.3288 128.057 40.5326 127.926C40.7365 127.796 41.0145 127.926 41.1628 128.356L41.3666 128.954ZM25.5206 138.297L25.9098 138.148C26.1507 138.036 26.3361 138.148 26.4843 138.559C26.6326 138.97 26.4843 139.157 26.299 139.269L25.9283 139.419L25.187 139.717L24.8163 139.886C24.5569 139.886 24.3715 139.886 24.2418 139.474C24.1121 139.063 24.2418 138.876 24.4086 138.764L24.7793 138.615L25.5206 138.297ZM28.5415 137.045L28.9307 136.877C29.1902 136.877 29.3755 136.877 29.5238 137.288C29.6721 137.699 29.5238 137.905 29.3385 138.017L28.9493 138.166L28.5601 138.335C28.3191 138.335 28.1153 138.335 27.9855 137.924C27.8558 137.512 27.9855 137.307 28.1709 137.195L28.5415 137.045ZM31.6366 135.756L31.8405 136.335C31.9702 136.709 31.8405 136.952 31.6551 137.064L31.2659 137.213L30.8767 137.382C30.6173 137.494 30.4134 137.382 30.2837 136.971C30.1539 136.559 30.2837 136.354 30.469 136.242L30.8582 136.074L30.6543 135.513C30.5246 135.139 30.6543 134.878 30.8397 134.784L31.2474 134.616L31.6366 134.448C31.8961 134.336 32.0814 134.448 32.2297 134.859C32.3779 135.27 32.2297 135.494 32.0258 135.588L31.6366 135.756ZM43.0161 131.028L43.8686 130.673L43.4609 129.477L43.0532 128.263L42.6269 128.45C42.3489 128.562 42.1265 128.45 41.9968 128.038L41.7929 127.422L41.3666 127.609C41.0886 127.739 40.8848 127.609 40.755 127.198L40.5512 126.6L40.1249 126.768C39.8469 126.899 39.643 126.768 39.5133 126.357L39.3094 125.759L38.4754 126.114L38.8831 127.31L39.2909 128.506L39.6986 129.702L40.0878 130.879L40.4956 132.075L41.3296 131.72L42.1636 131.383L43.0161 131.028ZM33.6197 136.26L33.805 136.821C33.9533 137.214 33.805 137.457 33.6197 137.569C33.4343 137.681 33.1563 137.568 33.0266 137.157L32.8227 136.578L32.6189 135.999C32.4891 135.625 32.6189 135.382 32.8227 135.27L33.2119 135.102L32.8042 133.943L32.415 134.111C32.1555 134.224 31.9517 134.112 31.8219 133.7L31.6181 133.14L31.2289 133.308C30.9694 133.42 30.7655 133.308 30.6358 132.897L30.4319 132.318L29.6535 132.654L30.0613 133.794L30.2651 134.373C30.3949 134.747 30.2651 134.99 30.0798 135.102L29.6906 135.27L28.9122 135.588L28.1523 135.906L27.3925 136.242L27.0033 136.391C26.7623 136.503 26.5585 136.391 26.4287 135.999L26.2249 135.42L25.8357 134.299L25.4465 134.467C25.2055 134.467 25.0017 134.467 24.8719 134.056C24.7422 133.644 24.8719 133.439 25.0573 133.327L25.4279 133.177L26.1878 132.841L26.9477 132.504L27.7075 132.168L28.4859 131.832L28.0782 130.692L27.6705 129.552L27.4666 128.973C27.3369 128.58 27.4666 128.338 27.6519 128.225L28.0411 128.038L27.8373 127.459C27.689 127.086 27.8373 126.824 28.0226 126.712L28.4118 126.525L28.0041 125.366L27.2257 125.721L27.4295 126.301C27.5593 126.693 27.4295 126.936 27.2442 127.067C27.0589 127.198 26.7809 127.067 26.6511 126.656L26.4473 126.077L26.0395 124.918L25.6503 125.105C25.3909 125.217 25.2055 125.105 25.0573 124.694C24.909 124.283 25.0573 124.058 25.2426 123.928L25.6318 123.759L26.021 123.573C26.2805 123.46 26.4658 123.573 26.6141 123.984L26.8179 124.563L27.5778 124.208L27.967 124.021C28.245 123.89 28.4303 124.021 28.5786 124.432L28.7825 125.011L29.1902 126.17L29.5794 126.002C29.8389 125.89 30.0427 126.002 30.1725 126.413L30.3763 126.992L30.5802 127.571C30.7099 127.964 30.5802 128.207 30.3949 128.337L30.0057 128.506L30.2095 129.085C30.3393 129.477 30.2095 129.72 30.0057 129.832C29.8018 129.945 29.5609 129.832 29.4126 129.44L29.2273 128.861L28.4489 129.197L28.8381 130.356L29.2458 131.496L30.0242 131.159L30.4134 130.991C30.6729 130.879 30.8767 130.991 31.0065 131.402L31.2103 131.981L31.5995 131.813C31.8775 131.701 32.0629 131.813 32.2111 132.224L32.415 132.804L33.1934 132.467L32.7857 131.309L32.3965 130.131L32.1926 129.552C32.0443 129.16 32.1926 128.917 32.3779 128.805C32.5633 128.693 32.8413 128.805 32.9895 129.216L33.1749 129.795L33.5826 129.627C33.8421 129.496 34.0459 129.627 34.1942 130.038C34.3425 130.449 34.1942 130.673 33.9903 130.785L33.5826 130.954L33.9903 132.131L34.3981 131.963C34.6575 131.832 34.8614 131.963 34.9911 132.374C35.1209 132.785 34.9911 133.009 34.7873 133.121L34.3981 133.289L34.8058 134.448L35.195 134.28C35.473 134.168 35.6583 134.28 35.8066 134.691C35.9549 135.102 35.8066 135.326 35.6027 135.438L35.195 135.606L34.3981 135.924L33.6197 136.26ZM41.7188 134.261C41.9968 134.149 42.2006 134.261 42.3304 134.691C42.4601 135.121 42.3304 135.326 42.1265 135.438C41.9226 135.55 41.6446 135.438 41.4964 135.027C41.3481 134.616 41.4964 134.392 41.7744 134.28L41.7188 134.261ZM31.2845 139.867L31.6737 139.699C31.9331 139.605 32.1185 139.699 32.2667 140.11C32.415 140.521 32.2667 140.727 32.0629 140.839L31.6737 140.988L31.303 141.138C31.0435 141.25 30.8397 141.138 30.7099 140.726L30.5061 140.166L30.1169 139.045L29.913 138.484C29.7833 138.111 29.913 137.868 30.0983 137.755C30.2837 137.643 30.5617 137.755 30.6914 138.166L30.8767 138.727L31.2845 139.867ZM47.2046 133.439C47.5012 133.327 47.705 133.439 47.8348 133.869C47.9645 134.298 47.8348 134.523 47.6124 134.653C47.39 134.784 47.112 134.653 46.9822 134.224C46.8525 133.794 46.9822 133.532 47.2602 133.401L47.2046 133.439ZM42.942 136.503L43.776 136.167L43.3868 134.99L42.979 133.813L42.5713 132.617L41.7373 132.972L40.9033 133.308L40.0693 133.644L40.477 134.822L40.8848 135.999L41.274 137.157L42.108 136.84L42.942 136.503ZM46.315 135.158L46.7598 134.99C47.0378 134.878 47.2417 134.99 47.39 135.42C47.5382 135.849 47.39 136.074 47.149 136.186L46.7228 136.354L46.2965 136.522C46.0185 136.634 45.7961 136.522 45.6664 136.092C45.5366 135.663 45.6664 135.438 45.8888 135.326L46.315 135.158ZM32.4706 143.23L32.6745 143.791C32.8042 144.165 32.6745 144.408 32.4891 144.501C32.3038 144.595 32.0258 144.501 31.8961 144.09L31.6922 143.529L31.5069 142.969C31.3771 142.595 31.5069 142.371 31.6922 142.259L32.0814 142.109L32.4706 141.96C32.7301 141.848 32.9154 141.96 33.0451 142.371C33.1749 142.782 33.0451 142.988 32.8598 143.081L32.4706 143.23ZM33.6382 142.782C33.8977 142.67 34.1015 142.782 34.2313 143.193C34.361 143.604 34.2313 143.81 34.0274 143.903C33.8235 143.997 33.5826 143.903 33.4529 143.492C33.3231 143.081 33.4343 142.838 33.6938 142.745L33.6382 142.782ZM35.6027 142.016L35.8066 142.576C35.9363 142.969 35.8066 143.193 35.6027 143.305C35.3989 143.417 35.1394 143.305 35.0097 142.894L34.8058 142.315L34.6205 141.754C34.4907 141.381 34.6205 141.138 34.8058 141.044L35.2135 140.876L35.6027 140.726C35.8622 140.614 36.0661 140.726 36.1958 141.138C36.3255 141.549 36.1958 141.754 35.9919 141.866L35.6027 142.016ZM40.0137 140.297C40.2917 140.185 40.4956 140.297 40.6253 140.708C40.755 141.119 40.6253 141.343 40.4214 141.455C40.2176 141.567 39.9395 141.455 39.8098 141.026C39.6801 140.596 39.8098 140.371 40.0693 140.259L40.0137 140.297ZM46.7042 137.699C46.9822 137.587 47.1861 137.699 47.3158 138.129C47.4456 138.559 47.3158 138.783 47.0934 138.877C46.871 138.97 46.593 138.877 46.4633 138.466C46.3336 138.054 46.4633 137.774 46.7598 137.662L46.7042 137.699ZM48.8356 136.859L49.0394 137.456C49.1692 137.867 49.0394 138.11 48.817 138.223C48.5946 138.335 48.3166 138.223 48.1869 137.793L47.983 137.195L47.7792 136.616C47.6494 136.205 47.7792 135.962 48.0201 135.849C48.261 135.737 48.502 135.849 48.6502 136.26L48.8356 136.859ZM37.5858 142.464L37.7897 143.025C37.9194 143.417 37.7897 143.66 37.5858 143.754C37.382 143.847 37.1225 143.754 36.9928 143.343L36.7889 142.763L36.6035 142.203C36.4553 141.829 36.6035 141.586 36.7889 141.474C36.9742 141.362 37.2522 141.474 37.4005 141.885L37.5858 142.464ZM44.9992 139.624L45.1845 140.203C45.3328 140.596 45.1845 140.839 44.9621 140.951C44.7397 141.063 44.4802 140.951 44.3505 140.521L44.1466 139.942L43.9613 139.362C43.8316 138.97 43.9613 138.727 44.1837 138.615C44.4061 138.503 44.6656 138.615 44.7953 139.045L44.9992 139.624ZM34.0645 145.099L34.2498 145.66C34.3795 146.033 34.2498 146.276 34.0645 146.37L33.6753 146.519L33.2861 146.65C33.0266 146.762 32.8413 146.65 32.7115 146.239C32.5818 145.828 32.7115 145.641 32.8969 145.547L33.2861 145.398L33.0822 144.837C32.9525 144.464 33.0822 144.221 33.2675 144.128C33.4529 144.034 33.7309 144.127 33.8606 144.539L34.0645 145.099ZM39.6245 142.987L39.8284 143.567C39.9581 143.941 39.8284 144.184 39.6245 144.277C39.4206 144.37 39.1612 144.277 39.0314 143.866L38.8275 143.305L38.4384 142.147L38.2345 141.586C38.1047 141.194 38.2345 140.951 38.4384 140.857C38.6422 140.764 38.9017 140.857 39.0314 141.268L39.2353 141.848L39.6245 142.987ZM42.9049 141.754L43.1088 142.333C43.2323 142.707 43.1582 142.95 42.8864 143.062C42.6084 143.062 42.4045 143.062 42.2748 142.633L42.0709 142.053L41.6817 140.895L41.4778 140.315C41.3419 139.942 41.416 139.699 41.7002 139.587L42.108 139.419L41.7188 138.26L41.2925 138.428C41.033 138.428 40.8292 138.428 40.6809 137.998L40.4956 137.419L40.0878 136.26L39.2724 136.578L39.6616 137.755L39.8654 138.335C39.9952 138.708 39.8654 138.951 39.6616 139.063L39.2538 139.231L38.4384 139.549L37.6414 139.867L37.8267 140.446C37.975 140.82 37.8268 141.063 37.6229 141.175C37.419 141.287 37.1595 141.175 37.0298 140.745L36.8259 140.185L36.4367 139.026L35.6398 139.344L34.8429 139.661L34.0645 139.979L33.6567 140.129C33.3973 140.241 33.2119 140.128 33.0822 139.717L32.8783 139.157L32.6745 138.596C32.5447 138.204 32.6745 137.961 32.8598 137.867C33.0451 137.774 33.3231 137.868 33.4529 138.279L33.6567 138.839L34.4537 138.522L35.2321 138.204L35.0467 137.625C34.917 137.251 35.0467 137.008 35.2321 136.896C35.4174 136.784 35.7139 136.896 35.8437 137.307L36.029 137.886L36.8445 137.569L37.2337 137.4C37.5117 137.288 37.7155 137.4 37.8453 137.812L38.0492 138.391L38.8461 138.073L38.4569 136.914L38.253 136.335C38.1233 135.943 38.253 135.7 38.4569 135.588L38.8646 135.42L38.4754 134.242L38.0677 133.084L37.2522 133.42L37.4561 133.999C37.5858 134.392 37.4561 134.635 37.2522 134.747C37.0483 134.859 36.7703 134.747 36.6406 134.336L36.4367 133.757L36.0475 132.598L35.8437 132C35.6954 131.608 35.8437 131.365 36.0475 131.253L36.4367 131.084L36.2514 130.486C36.1031 130.094 36.2514 129.851 36.4553 129.72C36.6591 129.589 36.9186 129.72 37.0483 130.15L37.2522 130.729L37.6599 131.907L38.4754 131.57L39.3094 131.215L38.9017 130.038L38.4939 130.206C38.2159 130.318 38.0121 130.206 37.8824 129.795C37.7526 129.384 37.8824 129.141 38.0862 129.029L38.4939 128.842L38.0862 127.665L37.6785 127.833C37.4005 127.964 37.1966 127.833 37.0669 127.422L36.863 126.824L36.0475 127.179L35.6398 127.366C35.3618 127.478 35.1579 127.366 35.0282 126.955C34.8985 126.544 35.0282 126.301 35.2321 126.189L35.6398 126.002L35.2321 124.806L34.4166 125.18L34.0089 125.366C33.7309 125.479 33.527 125.366 33.3973 124.955C33.2675 124.544 33.3973 124.301 33.6011 124.17L34.0089 123.984L33.805 123.386C33.6567 122.993 33.805 122.732 33.9903 122.62C34.1757 122.507 34.4722 122.62 34.6019 123.031L34.8058 123.628L35.2135 123.442C35.4915 123.311 35.6954 123.442 35.8437 123.853L36.0475 124.451L36.863 124.077L37.697 123.703L38.5125 123.33L38.9388 123.143C39.2168 123.012 39.4206 123.143 39.5689 123.554L39.7728 124.17L40.1805 123.984C40.477 123.853 40.6809 123.984 40.8106 124.395L41.0145 124.993L41.4222 126.207L41.8485 126.02C42.1265 125.908 42.3489 126.02 42.4786 126.45L42.6825 127.048L43.535 126.674L43.1273 125.46L42.7196 124.245L42.2933 124.432C41.9968 124.563 41.7929 124.432 41.6632 124.021L41.4593 123.423L41.0516 122.19L40.6253 122.395C40.3473 122.507 40.1249 122.395 39.9952 121.965C39.8654 121.536 39.9952 121.293 40.2176 121.162L40.6253 120.975L41.0516 120.788C41.3481 120.657 41.552 120.788 41.6817 121.199L41.9041 121.816L42.7566 121.424L43.1829 121.237C43.4609 121.106 43.6833 121.237 43.813 121.667L44.0169 122.264L44.2208 122.881C44.369 123.292 44.2208 123.554 43.9984 123.685L43.5721 123.871L43.9798 125.086L44.3876 126.319L44.5914 126.917C44.715 127.328 44.6409 127.59 44.369 127.702L43.9428 127.889L44.3505 129.085L44.7582 130.3L45.1474 131.496L46.0185 131.14L46.4448 130.972C46.7228 130.842 46.9452 130.972 47.0749 131.402C47.2046 131.832 47.0749 132.056 46.8525 132.168L46.4077 132.355L46.6116 132.953C46.7413 133.345 46.6116 133.607 46.3892 133.719C46.1668 133.831 45.8888 133.719 45.759 133.289L45.5552 132.691L44.7026 133.046L45.1104 134.242L45.3142 134.822C45.444 135.233 45.3142 135.476 45.0733 135.588L44.6656 135.756L45.0548 136.952L45.481 136.784C45.759 136.672 45.9814 136.784 46.1112 137.195C46.2409 137.606 46.1112 137.849 45.8888 137.961L45.4625 138.129L45.0362 138.279C44.7582 138.391 44.5544 138.279 44.4061 137.867L44.2208 137.27L43.3682 137.606L42.5342 137.942L42.942 139.101L43.3312 140.259L43.535 140.857C43.6709 141.231 43.5968 141.474 43.3126 141.586L42.9049 141.754ZM44.1466 141.268C44.4246 141.268 44.6285 141.268 44.7768 141.698C44.925 142.128 44.7768 142.334 44.5544 142.427C44.332 142.52 44.0725 142.427 43.9242 142.016C43.776 141.605 43.8872 141.418 44.1281 141.306L44.1466 141.268ZM47.0934 140.147L47.2973 140.745C47.427 141.138 47.2973 141.381 47.0749 141.493C46.8525 141.605 46.5745 141.493 46.4448 141.063L46.2594 140.465L46.0556 139.886C45.9258 139.493 46.0556 139.25 46.278 139.138C46.5004 139.026 46.7784 139.138 46.9081 139.568L47.0934 140.147ZM48.817 139.493L49.0209 140.091C49.1506 140.484 49.0209 140.745 48.78 140.839C48.539 140.932 48.2796 140.839 48.1498 140.409L47.9645 139.83L47.8348 139.344C47.705 138.951 47.8348 138.708 48.0572 138.596C48.2796 138.484 48.5576 138.596 48.6873 139.026L48.817 139.493ZM17.7922 115.294L18.83 114.752C19.8864 114.211 20.6834 114.753 21.295 116.416L22.4441 119.686C23.0186 121.33 22.7777 122.395 21.7213 122.9L19.6455 123.89C18.6076 124.395 17.7922 123.89 17.2362 122.246L16.0686 119.032C15.494 117.425 15.7164 116.36 16.7543 115.818L17.7922 115.294L18.1999 116.453L17.4586 116.827C16.7172 117.2 16.569 117.967 16.9767 119.125L17.7922 121.424C18.2246 122.557 18.7992 122.95 19.5158 122.601L21.017 121.891C21.7583 121.517 21.9437 120.751 21.5174 119.592L20.7019 117.257C20.2757 116.098 19.7011 115.687 18.9412 116.079L18.1999 116.453L17.7922 115.294ZM35.195 106.344L36.3811 105.746C37.5858 105.129 38.4754 105.746 39.0685 107.465L40.2546 110.997C40.8292 112.734 40.5326 113.912 39.328 114.472L36.9557 115.612C35.7819 116.173 34.9108 115.593 34.3425 113.874L33.1749 110.436C32.5818 108.717 32.8598 107.54 34.0274 106.942L35.195 106.344L35.6213 107.596L34.7873 108.025C33.9533 108.455 33.7494 109.277 34.1571 110.511L35.0097 112.977C35.4174 114.211 36.0475 114.622 36.863 114.211L38.5496 113.407C39.4021 112.996 39.6245 112.155 39.1982 110.903L38.3642 108.399C37.9379 107.147 37.3078 106.736 36.5109 107.166L35.6583 107.596L35.195 106.344ZM26.7253 140.353L27.7817 139.923C28.8566 139.493 29.635 140.072 30.2281 141.642L31.3215 144.763C31.8775 146.314 31.6181 147.285 30.5431 147.696L28.4489 148.481C27.411 148.874 26.5955 148.313 26.0581 146.781L24.9646 143.716C24.4086 142.184 24.6495 141.212 25.6874 140.783L26.7253 140.353L27.133 141.474L26.3917 141.773C25.6318 142.072 25.465 142.763 25.8542 143.866L26.6511 146.071C27.0403 147.155 27.6149 147.566 28.3562 147.267L29.8574 146.706C30.6173 146.407 30.8026 145.716 30.4134 144.613L29.6165 142.39C29.2273 141.268 28.6342 140.857 27.8743 141.175L27.133 141.474L26.7253 140.353ZM18.6076 117.612L19.071 117.387C19.5158 117.163 19.8679 117.387 20.1089 118.097L20.6093 119.499C20.8502 120.19 20.7575 120.657 20.3127 120.882L19.4046 121.311C18.9598 121.536 18.6262 121.311 18.3667 120.601L17.8663 119.219C17.6254 118.527 17.718 118.06 18.1628 117.836L18.6076 117.612ZM36.0475 108.848L36.5479 108.586C37.0669 108.343 37.4375 108.586 37.697 109.333L38.1974 110.828C38.4569 111.576 38.3272 112.08 37.8082 112.323L36.8074 112.828C36.2885 113.071 35.9178 112.828 35.6583 112.08L35.1579 110.585C34.917 109.857 35.0282 109.352 35.5471 109.091L36.0475 108.848ZM27.5222 142.483L27.9855 142.315C28.4303 142.128 28.7825 142.315 29.0049 143.044L29.4867 144.37C29.7277 145.024 29.6165 145.454 29.1531 145.622L28.2635 145.977C27.8187 146.146 27.4666 145.977 27.2257 145.249L26.7623 143.922C26.5214 143.268 26.6326 142.838 27.0774 142.67L27.5222 142.483ZM21.5545 113.258C21.8139 113.127 21.9993 113.258 22.1475 113.65L22.3514 114.248L23.1298 113.856L23.519 113.669C23.7599 113.538 23.9638 113.669 24.1121 114.061L24.3159 114.659L24.5198 115.257C24.6681 115.649 24.5198 115.911 24.353 116.042L23.9638 116.229L24.1677 116.827C24.2974 117.219 24.1677 117.481 23.9823 117.612L23.6117 117.798L23.2225 117.985C22.963 118.116 22.7591 117.985 22.6294 117.593C22.4997 117.2 22.6294 116.939 22.7962 116.808L23.1854 116.621L22.7777 115.425L22.3885 115.631C22.129 115.762 21.9437 115.631 21.7954 115.238L21.5915 114.64L21.3877 114.042C21.2517 113.731 21.3135 113.513 21.573 113.388L21.5545 113.258Z" fill="white"/>
</g>
<defs>
<clipPath id="clip0_4025_1119">
<rect width="208" height="165" fill="white"/>
</clipPath>
</defs>
</svg>
